<?xml version="1.0" encoding="utf-8"?>
<!-- Generator: Adobe Illustrator 22.0.1, SVG Export Plug-In . SVG Version: 6.00 Build 0)  -->
<svg version="1.1" id="Layer_1" xmlns="http://www.w3.org/2000/svg" xmlns:xlink="http://www.w3.org/1999/xlink" x="0px" y="0px"
	 viewBox="0 0 50 50" style="enable-background:new 0 0 50 50;" xml:space="preserve">
<style type="text/css">
	.st0{clip-path:url(#SVGID_2_);fill:#6D4099;}
	
		.st1{clip-path:url(#SVGID_2_);fill:none;stroke:#6D4099;stroke-width:1.068;stroke-linecap:round;stroke-linejoin:round;stroke-miterlimit:10;}
</style>
<g>
	<defs>
		<rect id="SVGID_1_" x="5.8" y="7.3" width="38.4" height="35.7"/>
	</defs>
	<clipPath id="SVGID_2_">
		<use xlink:href="#SVGID_1_"  style="overflow:visible;"/>
	</clipPath>
	<path class="st0" d="M26,24c-0.3-0.2-0.7-0.2-0.9,0.1l-4,4.9l-2.6-2.1c-0.3-0.2-0.7-0.2-0.9,0.1c-0.2,0.3-0.2,0.7,0.1,0.9l3.1,2.6
		c0.1,0.1,0.3,0.2,0.5,0.1c0.2,0,0.3-0.1,0.4-0.2l4.4-5.4C26.3,24.7,26.2,24.2,26,24"/>
	<path class="st0" d="M21.4,37.6c-5.6,0-10.2-4.6-10.2-10.2c0-5.6,4.6-10.2,10.2-10.2c5.6,0,10.2,4.6,10.2,10.2
		C31.6,33,27.1,37.6,21.4,37.6 M21.4,16C15.1,16,10,21.1,10,27.4c0,6.3,5.1,11.5,11.5,11.5s11.5-5.1,11.5-11.5
		C32.9,21.1,27.8,16,21.4,16"/>
	<path class="st0" d="M35.5,33.3c-0.1,0.3-0.4,0.5-0.6,0.7l-2.6,1.6c-0.5,0.3-1,0.7-1.4,1.2c-0.5,0.5-0.9,1-1.2,1.4l-1.6,2.6
		c-0.1,0.2-0.4,0.4-0.7,0.6c-0.3,0.2-0.6,0.2-0.9,0.2c-0.1,0-0.2,0-0.3,0l-3-0.7c-0.5-0.1-1.1-0.2-1.8-0.2c-0.7,0-1.3,0.1-1.9,0.2
		l-3,0.7c-0.1,0-0.2,0-0.3,0c-0.3,0-0.6-0.1-0.9-0.2c-0.3-0.1-0.5-0.4-0.7-0.6l-1.6-2.6c-0.3-0.5-0.7-1-1.2-1.4
		c-0.5-0.5-1-0.9-1.4-1.2L8,34.1c-0.2-0.1-0.4-0.4-0.6-0.7c-0.2-0.3-0.2-0.6-0.2-0.9c0-0.1,0-0.2,0-0.3v0l0.7-3
		C8,28.8,8,28.2,8.1,27.5c0-0.7-0.1-1.3-0.2-1.9l-0.7-3c0-0.1,0-0.2,0-0.3c0-0.3,0.1-0.6,0.2-0.9c0.1-0.3,0.4-0.5,0.6-0.7l2.6-1.6
		c0.5-0.3,1-0.7,1.4-1.2c0.5-0.5,0.9-1,1.2-1.4l1.6-2.6c0.1-0.2,0.4-0.4,0.7-0.6c0.3-0.2,0.6-0.2,0.9-0.2c0.1,0,0.2,0,0.3,0l3,0.7
		C20,14,20.6,14,21.3,14c0.7,0,1.3-0.1,1.9-0.2l3-0.7c0.1,0,0.2,0,0.3,0c0.3,0,0.6,0.1,0.9,0.2c0.3,0.1,0.5,0.4,0.7,0.6l1.6,2.6
		c0.3,0.5,0.7,1,1.2,1.4c0.5,0.5,1,0.9,1.4,1.2l2.6,1.6c0.2,0.1,0.4,0.4,0.6,0.7c0.2,0.3,0.2,0.6,0.2,0.9c0,0.1,0,0.2,0,0.3v0
		l-0.7,3c-0.1,0.5-0.2,1.1-0.2,1.8c0,0.7,0.1,1.3,0.2,1.9l0.7,3c0,0.1,0,0.2,0,0.3C35.7,32.7,35.6,33,35.5,33.3 M36.9,31.8l-0.7-3
		c-0.1-0.4-0.2-1-0.2-1.6c0-0.6,0.1-1.1,0.1-1.5l0.7-3v0c0-0.2,0.1-0.4,0.1-0.6c0-0.5-0.1-1.1-0.4-1.5c-0.2-0.5-0.6-0.9-1.1-1.2
		l-2.6-1.6c-0.3-0.2-0.8-0.6-1.2-1c-0.4-0.4-0.8-0.8-1-1.2l-1.6-2.6c-0.3-0.5-0.7-0.8-1.2-1c-0.5-0.2-1-0.4-1.5-0.4
		c-0.2,0-0.4,0-0.6,0.1l-3,0.7c-0.4,0.1-1,0.2-1.6,0.2c-0.6,0-1.1-0.1-1.5-0.1l-3-0.7c-0.2,0-0.4-0.1-0.6-0.1
		c-0.5,0-1.1,0.1-1.5,0.4c-0.5,0.2-0.9,0.6-1.2,1.1L12,15.9c-0.2,0.3-0.6,0.8-1,1.2c-0.4,0.4-0.8,0.8-1.2,1l-2.6,1.6
		c-0.5,0.3-0.8,0.7-1,1.2c-0.2,0.5-0.4,1-0.4,1.5c0,0.2,0,0.4,0.1,0.6l0.7,3c0.1,0.4,0.2,1,0.2,1.6c0,0.5-0.1,1.1-0.1,1.5l-0.7,3
		l0,0c0,0.2-0.1,0.4-0.1,0.6c0,0.5,0.1,1.1,0.4,1.5c0.2,0.5,0.6,0.9,1.1,1.2l2.6,1.6c0.3,0.2,0.8,0.6,1.2,1c0.4,0.4,0.8,0.8,1,1.2
		l1.6,2.6c0.3,0.5,0.7,0.8,1.2,1c0.5,0.2,1,0.4,1.5,0.4c0.2,0,0.4,0,0.6-0.1l3-0.7c0.4-0.1,1-0.2,1.6-0.2c0.6,0,1.1,0.1,1.5,0.1
		l3,0.7c0.2,0,0.4,0.1,0.6,0.1c0.5,0,1.1-0.1,1.5-0.4c0.5-0.2,0.9-0.6,1.2-1.1l1.6-2.6c0.2-0.3,0.6-0.8,1-1.2c0.4-0.4,0.8-0.8,1.2-1
		l2.6-1.6c0.5-0.3,0.8-0.7,1-1.2c0.2-0.5,0.4-1,0.4-1.5C37,32.2,36.9,31.8,36.9,31.8"/>
	<line class="st1" x1="39.7" y1="7.8" x2="39.7" y2="15.7"/>
	<line class="st1" x1="43.7" y1="11.8" x2="35.7" y2="11.8"/>
</g>
</svg>
