<?xml version="1.0" encoding="utf-8"?>
<!-- Generator: Adobe Illustrator 22.0.1, SVG Export Plug-In . SVG Version: 6.00 Build 0)  -->
<svg version="1.1" id="Layer_1" xmlns="http://www.w3.org/2000/svg" xmlns:xlink="http://www.w3.org/1999/xlink" x="0px" y="0px"
	 viewBox="0 0 50 50" style="enable-background:new 0 0 50 50;" xml:space="preserve">
<style type="text/css">
	.st0{clip-path:url(#SVGID_2_);fill:#6D4099;}
</style>
<g>
	<defs>
		<rect id="SVGID_1_" x="1.4" y="11.2" width="47.2" height="27.8"/>
	</defs>
	<clipPath id="SVGID_2_">
		<use xlink:href="#SVGID_1_"  style="overflow:visible;"/>
	</clipPath>
	<path class="st0" d="M34.7,12.8c-6.8,0-12.3,5.5-12.3,12.3s5.5,12.3,12.3,12.3S47,31.9,47,25.1C47,18.3,41.5,12.8,34.7,12.8
		 M34.7,39c-7.7,0-13.9-6.2-13.9-13.9S27,11.2,34.7,11.2c7.7,0,13.9,6.2,13.9,13.9S42.4,39,34.7,39"/>
	<path class="st0" d="M35.3,27c-0.1,0-0.2,0-0.3-0.1l-8.1-3.6c-0.4-0.2-0.6-0.6-0.4-1c0.2-0.4,0.6-0.6,1-0.4l7.1,3.1v-6.9
		c0-0.4,0.3-0.8,0.8-0.8s0.8,0.3,0.8,0.8v8.1c0,0.3-0.1,0.5-0.3,0.6C35.6,26.9,35.4,27,35.3,27"/>
	<path class="st0" d="M15.1,27H2.2c-0.4,0-0.8-0.3-0.8-0.8c0-0.4,0.3-0.8,0.8-0.8h12.9c0.4,0,0.8,0.3,0.8,0.8
		C15.9,26.6,15.5,27,15.1,27"/>
	<path class="st0" d="M19,21H6c-0.4,0-0.8-0.3-0.8-0.8s0.3-0.8,0.8-0.8H19c0.4,0,0.8,0.3,0.8,0.8S19.4,21,19,21"/>
	<path class="st0" d="M16.6,27H3.7c-0.4,0-0.8-0.3-0.8-0.8c0-0.4,0.3-0.8,0.8-0.8h12.9c0.4,0,0.8,0.3,0.8,0.8
		C17.4,26.6,17,27,16.6,27"/>
	<path class="st0" d="M19,32.9H6c-0.4,0-0.8-0.3-0.8-0.8c0-0.4,0.3-0.8,0.8-0.8H19c0.4,0,0.8,0.3,0.8,0.8
		C19.7,32.5,19.4,32.9,19,32.9"/>
</g>
</svg>
