<?xml version="1.0" encoding="utf-8"?>
<!-- Generator: Adobe Illustrator 22.0.1, SVG Export Plug-In . SVG Version: 6.00 Build 0)  -->
<svg version="1.1" id="Layer_1" xmlns="http://www.w3.org/2000/svg" xmlns:xlink="http://www.w3.org/1999/xlink" x="0px" y="0px"
	 viewBox="0 0 166.7 85.8" style="enable-background:new 0 0 166.7 85.8;" xml:space="preserve">
<style type="text/css">
	.st0{clip-path:url(#SVGID_2_);fill:#6C3F99;}
	.st1{fill:#6C3F99;}
	.st2{fill:#FFFFFF;}
</style>
<g>
	<defs>
		<path id="SVGID_1_" d="M3.3,42.9C3.3,65.1,38.9,83,82.9,83s79.6-18,79.6-40.1c0-22.1-35.6-40.1-79.6-40.1S3.3,20.8,3.3,42.9"/>
	</defs>
	<clipPath id="SVGID_2_">
		<use xlink:href="#SVGID_1_"  style="overflow:visible;"/>
	</clipPath>
	<rect x="3.3" y="2.8" class="st0" width="159.2" height="80.2"/>
</g>
<g>
	<path class="st1" d="M82.9,79.1c-20,0-38.8-3.8-52.9-10.6C15.9,61.6,8.2,52.6,8.2,42.9S15.9,24.3,30,17.4
		C44.1,10.6,62.9,6.8,82.9,6.8c20,0,38.8,3.8,52.9,10.6c14.1,6.8,21.8,15.9,21.8,25.5s-7.7,18.7-21.8,25.5
		C121.7,75.3,102.9,79.1,82.9,79.1"/>
	<path class="st2" d="M82.9,7.7c19.9,0,38.5,3.7,52.5,10.6c13.7,6.7,21.3,15.4,21.3,24.7c0,9.2-7.6,18-21.3,24.7
		c-14,6.8-32.7,10.6-52.5,10.6c-19.9,0-38.5-3.7-52.5-10.6C16.7,60.9,9.1,52.2,9.1,42.9c0-9.2,7.6-18,21.3-24.7
		C44.4,11.4,63,7.7,82.9,7.7 M82.9,5.8c-20.1,0-39.1,3.8-53.3,10.7c-14.4,7-22.3,16.4-22.3,26.3c0,10,7.9,19.3,22.3,26.3
		C43.8,76.2,62.8,80,82.9,80c20.1,0,39.1-3.8,53.3-10.7c14.4-7,22.3-16.4,22.3-26.3s-7.9-19.3-22.3-26.3C122,9.7,103,5.8,82.9,5.8"
		/>
	<path class="st2" d="M34.6,23.9H42c3.5,0,4.7,1.9,4.1,4.7c-0.4,2-1.7,3.8-3.8,4.2l0,0.1c2.4,0.2,3,2.3,2.6,4.3
		c-0.7,3.3-2.8,5.6-6.8,5.6h-7.4L34.6,23.9z M36.2,39.1h1.4c0.9,0,1.9-0.8,2.2-2.3c0.3-1.4-0.4-2.3-1.3-2.3h-1.4L36.2,39.1z
		 M37.9,31.2h1.2c1,0,1.7-0.9,2-1.9c0.2-1.1-0.1-1.9-1.1-1.9h-1.2L37.9,31.2z"/>
	<path class="st2" d="M52.2,42.7c-0.1-0.5,0-1,0.1-1.6h-0.1c-0.8,1.3-2.2,2-3.6,2c-2.8,0-3.6-1.7-3.1-4.2c0.6-2.6,1.7-3.9,4.9-4.6
		l2-0.4c1.1-0.2,1.5-0.7,1.7-1.6c0.2-0.9-0.1-1.3-0.9-1.3c-0.9,0-1.4,0.4-1.7,1.9h-4.1c0.9-4.1,4.3-4.8,6.5-4.8
		c3.3,0,5.5,0.9,4.7,4.6l-1.5,7c-0.3,1.3-0.4,2.3-0.2,3.1H52.2z M53,37.5l0.4-1.7h-0.1c-0.3,0.4-1,0.3-1.7,0.7
		c-0.8,0.3-1.2,0.9-1.4,1.8c-0.2,0.9,0.1,1.6,0.8,1.6C52.1,39.9,52.7,39.1,53,37.5"/>
	<path class="st2" d="M61.3,28.4h4.6l-0.5,2.3h0.1c0.9-1.7,2.3-2.6,3.7-2.6H70l-0.9,4.4c-0.4-0.1-0.8-0.1-1.2-0.1
		c-1.7,0-2.8,0.7-3.2,2.5L63,42.7h-4.7L61.3,28.4z"/>
	<path class="st2" d="M83.9,29.6c0.5-2.1,0.2-2.8-0.8-2.8c-1.5,0-2,1.4-3,6.5c-1.1,5.1-1.2,6.5,0.3,6.5c1.2,0,1.7-1.1,2.5-4.6h4.7
		l-0.3,1.4c-1.1,5.3-4.5,6.5-7.6,6.5c-5.5,0-6.1-2.8-4.6-9.8c1.5-7.2,3.7-9.8,8.8-9.8c4.4,0,5.6,2.3,4.8,6l-0.3,1.2h-4.7L83.9,29.6z
		"/>
	<path class="st2" d="M93.1,43c-5.6,0-5.3-3.4-4.5-7.5c0.8-3.7,2.3-7.5,7.6-7.5c5.6,0,5.3,3.4,4.5,7.5C100,39.3,98.4,43,93.1,43
		 M93.8,40c1.1,0,1.5-0.8,2.3-4.4c0.8-3.6,0.7-4.5-0.4-4.5c-1.1,0-1.5,0.8-2.3,4.5C92.6,39.1,92.7,40,93.8,40"/>
	<polygon class="st2" points="102.6,28.4 107.5,28.4 106.7,38.7 106.7,38.7 110.2,28.4 115.1,28.4 108.6,42.7 103,42.7 	"/>
	<path class="st2" d="M118.5,36.4l-0.4,1.9c-0.3,1.5,0.2,1.9,0.9,1.9c0.8,0,1.5-0.5,1.9-2.5h4.3c-0.8,3.4-2.8,5.4-6.7,5.4
		c-4.6,0-5.6-2.1-4.5-7.5c1.2-5.5,3.4-7.5,7.7-7.5c3.8,0,5.4,1.7,4.3,6.8l-0.3,1.4H118.5z M121.8,33.1c0.3-1.5,0.1-2.2-0.9-2.2
		c-1,0-1.4,0.7-1.8,2.2l-0.1,0.6h2.6L121.8,33.1z"/>
	<path class="st2" d="M128.4,28.4h4.6l-0.5,2.3h0.1c0.9-1.7,2.3-2.6,3.7-2.6h0.8l-0.9,4.4c-0.4-0.1-0.8-0.1-1.2-0.1
		c-1.7,0-2.8,0.7-3.2,2.5l-1.7,7.8h-4.7L128.4,28.4z"/>
	<path class="st2" d="M33,52h2.2c0.3,0,0.6,0,0.8,0.1c0.2,0.1,0.4,0.2,0.6,0.4c0.2,0.2,0.3,0.4,0.3,0.6C37,53.4,37,53.7,37,54
		c0,0.6-0.2,1.1-0.5,1.5C36.1,55.8,35.6,56,35,56h-1v2.8H33V52z M34,55.2h0.8c0.1,0,0.3,0,0.4-0.1c0.1,0,0.2-0.1,0.4-0.2
		c0.1-0.1,0.2-0.2,0.2-0.4c0.1-0.2,0.1-0.3,0.1-0.6c0-0.4-0.1-0.7-0.3-0.9c-0.2-0.2-0.5-0.3-0.9-0.3H34V55.2z"/>
	<path class="st2" d="M37.5,53.7h1v0.8h0c0.1-0.3,0.3-0.5,0.5-0.7c0.2-0.2,0.4-0.3,0.7-0.3c0.1,0,0.2,0,0.3,0v1.1c0,0-0.1,0-0.2,0
		c-0.1,0-0.2,0-0.3,0c-0.1,0-0.2,0-0.4,0c-0.1,0-0.2,0.1-0.3,0.2c-0.1,0.1-0.2,0.2-0.2,0.4c-0.1,0.2-0.1,0.3-0.1,0.6v3.1h-1V53.7z"
		/>
	<path class="st2" d="M42,59c-0.4,0-0.7-0.1-0.9-0.2c-0.2-0.1-0.4-0.3-0.6-0.6c-0.2-0.2-0.3-0.5-0.3-0.9c-0.1-0.3-0.1-0.7-0.1-1.1
		c0-0.4,0-0.8,0.1-1.1c0.1-0.3,0.2-0.6,0.3-0.9c0.1-0.2,0.3-0.4,0.6-0.6c0.2-0.1,0.6-0.2,0.9-0.2c0.4,0,0.7,0.1,0.9,0.2
		c0.2,0.1,0.4,0.3,0.6,0.6c0.1,0.2,0.3,0.5,0.3,0.9c0.1,0.3,0.1,0.7,0.1,1.1c0,0.4,0,0.8-0.1,1.1c-0.1,0.3-0.2,0.6-0.3,0.9
		c-0.2,0.2-0.3,0.4-0.6,0.6C42.7,58.9,42.4,59,42,59 M41.1,56.3c0,0.3,0,0.6,0,0.9c0,0.2,0.1,0.5,0.1,0.6c0.1,0.2,0.2,0.3,0.3,0.4
		c0.1,0.1,0.3,0.1,0.5,0.1c0.2,0,0.3,0,0.5-0.1c0.1-0.1,0.2-0.2,0.3-0.4c0.1-0.2,0.1-0.4,0.1-0.6c0-0.2,0-0.5,0-0.9
		c0-0.3,0-0.5,0-0.8c0-0.2-0.1-0.4-0.1-0.6c-0.1-0.2-0.2-0.3-0.3-0.4c-0.1-0.1-0.3-0.1-0.5-0.1c-0.2,0-0.3,0-0.5,0.1
		c-0.1,0.1-0.2,0.2-0.3,0.4c-0.1,0.2-0.1,0.4-0.1,0.6C41.2,55.7,41.1,56,41.1,56.3"/>
	<path class="st2" d="M44.1,53.7h0.7v-1.5h1v1.5h0.8v0.8h-0.8v3.1c0,0.2,0,0.3,0.1,0.4c0.1,0.1,0.2,0.1,0.4,0.1c0.2,0,0.3,0,0.4,0
		v0.8c-0.2,0.1-0.5,0.1-0.8,0.1c-0.2,0-0.3,0-0.5,0c-0.1,0-0.2-0.1-0.3-0.2c-0.1-0.1-0.2-0.2-0.2-0.4c0-0.2-0.1-0.4-0.1-0.6v-3.2
		h-0.7V53.7z"/>
	<path class="st2" d="M47.9,56.4v0.3c0,0.2,0,0.4,0,0.5c0,0.2,0.1,0.4,0.1,0.5c0.1,0.2,0.1,0.3,0.3,0.4c0.1,0.1,0.3,0.1,0.5,0.1
		c0.2,0,0.3,0,0.4-0.1c0.1-0.1,0.2-0.2,0.3-0.3c0.1-0.1,0.1-0.3,0.1-0.4c0-0.1,0-0.2,0-0.3h1c0,0.6-0.2,1-0.5,1.4
		c-0.3,0.3-0.8,0.5-1.3,0.5c-0.2,0-0.4,0-0.6-0.1c-0.2-0.1-0.4-0.2-0.6-0.3c-0.2-0.2-0.3-0.4-0.5-0.8c-0.1-0.4-0.2-0.8-0.2-1.4
		c0-0.3,0-0.7,0.1-1c0-0.3,0.1-0.6,0.3-0.9c0.1-0.3,0.3-0.5,0.6-0.6c0.2-0.2,0.6-0.2,1-0.2c0.4,0,0.7,0.1,0.9,0.2
		c0.2,0.1,0.4,0.3,0.6,0.5c0.1,0.2,0.2,0.4,0.3,0.7c0.1,0.3,0.1,0.6,0.1,1v0.5H47.9z M49.5,55.7v-0.3c0-0.3-0.1-0.6-0.2-0.8
		c-0.1-0.2-0.3-0.3-0.6-0.3c-0.2,0-0.3,0-0.4,0.1c-0.1,0.1-0.2,0.2-0.3,0.3c-0.1,0.1-0.1,0.3-0.1,0.4c0,0.2,0,0.3,0,0.5v0.1H49.5z"
		/>
	<path class="st2" d="M54.6,57c0,0.3-0.1,0.6-0.1,0.8c-0.1,0.3-0.2,0.5-0.3,0.6c-0.1,0.2-0.3,0.3-0.5,0.4c-0.2,0.1-0.5,0.1-0.8,0.1
		c-0.4,0-0.7-0.1-0.9-0.2c-0.2-0.1-0.4-0.3-0.6-0.6c-0.1-0.2-0.2-0.5-0.3-0.9C51,57,51,56.7,51,56.3c0-0.4,0-0.8,0.1-1.1
		c0.1-0.3,0.2-0.6,0.3-0.9c0.1-0.2,0.3-0.4,0.6-0.6c0.2-0.1,0.6-0.2,0.9-0.2c0.4,0,0.7,0.1,0.9,0.2c0.2,0.1,0.4,0.3,0.5,0.5
		c0.1,0.2,0.2,0.4,0.2,0.6c0,0.2,0.1,0.4,0.1,0.6h-1c0-0.1,0-0.2,0-0.4c0-0.1-0.1-0.2-0.1-0.4c-0.1-0.1-0.1-0.2-0.2-0.3
		c-0.1-0.1-0.2-0.1-0.4-0.1c-0.2,0-0.3,0-0.5,0.1c-0.1,0.1-0.2,0.2-0.3,0.4c-0.1,0.2-0.1,0.4-0.1,0.6c0,0.2,0,0.5,0,0.8
		c0,0.3,0,0.5,0,0.8c0,0.2,0.1,0.4,0.1,0.6c0.1,0.2,0.2,0.3,0.3,0.4s0.3,0.1,0.5,0.1c0.3,0,0.5-0.1,0.6-0.3c0.1-0.2,0.2-0.5,0.2-0.9
		H54.6z"/>
	<path class="st2" d="M54.8,53.7h0.7v-1.5h1v1.5h0.8v0.8h-0.8v3.1c0,0.2,0,0.3,0.1,0.4c0.1,0.1,0.2,0.1,0.4,0.1c0.2,0,0.3,0,0.4,0
		v0.8c-0.2,0.1-0.5,0.1-0.8,0.1c-0.2,0-0.3,0-0.5,0c-0.1,0-0.2-0.1-0.3-0.2c-0.1-0.1-0.2-0.2-0.2-0.4c0-0.2-0.1-0.4-0.1-0.6v-3.2
		h-0.7V53.7z"/>
	<path class="st2" d="M57.8,51.9h1v1h-1V51.9z M57.8,53.7h1v5.2h-1V53.7z"/>
	<path class="st2" d="M59.6,53.7h1v0.6h0c0.1-0.2,0.3-0.4,0.5-0.5c0.2-0.1,0.5-0.2,0.8-0.2c0.2,0,0.4,0,0.5,0.1
		c0.2,0,0.3,0.1,0.4,0.2c0.1,0.1,0.2,0.3,0.3,0.4c0.1,0.2,0.1,0.4,0.1,0.7v3.9h-1v-3.5c0-0.3-0.1-0.6-0.2-0.7
		c-0.1-0.1-0.3-0.2-0.6-0.2c-0.2,0-0.4,0.1-0.6,0.2c-0.2,0.2-0.3,0.4-0.3,0.8v3.5h-1V53.7z"/>
	<path class="st2" d="M64.9,59.3c0,0.2,0.1,0.3,0.2,0.4c0.1,0.1,0.3,0.2,0.5,0.2c0.3,0,0.5-0.1,0.6-0.3c0.2-0.2,0.2-0.4,0.2-0.7
		v-0.8h0c-0.1,0.2-0.3,0.4-0.5,0.5c-0.2,0.1-0.5,0.2-0.7,0.2c-0.3,0-0.5-0.1-0.7-0.2c-0.2-0.1-0.4-0.3-0.5-0.6
		c-0.1-0.2-0.2-0.5-0.3-0.8c0-0.3-0.1-0.6-0.1-1c0-0.3,0-0.6,0-0.9c0-0.3,0.1-0.6,0.2-0.9c0.1-0.3,0.3-0.5,0.5-0.6
		c0.2-0.2,0.5-0.3,0.9-0.3c0.2,0,0.3,0,0.4,0.1c0.1,0,0.2,0.1,0.3,0.2c0.1,0.1,0.2,0.2,0.2,0.2c0.1,0.1,0.1,0.2,0.1,0.3h0v-0.6h1
		v4.9c0,0.3,0,0.6-0.1,0.8c-0.1,0.2-0.2,0.5-0.3,0.6c-0.2,0.2-0.4,0.3-0.6,0.4c-0.2,0.1-0.5,0.1-0.9,0.1c-0.4,0-0.7,0-0.9-0.1
		c-0.2-0.1-0.4-0.2-0.5-0.4C64.1,60,64,59.8,64,59.7c0-0.2-0.1-0.3-0.1-0.4H64.9z M64.8,56.1c0,0.2,0,0.4,0,0.7c0,0.2,0,0.4,0.1,0.6
		c0.1,0.2,0.1,0.3,0.2,0.4c0.1,0.1,0.3,0.2,0.5,0.2c0.2,0,0.4-0.1,0.5-0.2c0.1-0.1,0.2-0.3,0.3-0.4c0.1-0.2,0.1-0.4,0.1-0.6
		c0-0.2,0-0.4,0-0.6c0-0.2,0-0.4,0-0.6c0-0.2-0.1-0.4-0.1-0.6c-0.1-0.2-0.1-0.3-0.2-0.4c-0.1-0.1-0.3-0.2-0.4-0.2
		c-0.2,0-0.3,0-0.5,0.1c-0.1,0.1-0.2,0.2-0.3,0.4c-0.1,0.2-0.1,0.3-0.1,0.6C64.8,55.6,64.8,55.9,64.8,56.1"/>
	<path class="st2" d="M70.6,52h2.2c0.3,0,0.5,0,0.7,0.1c0.2,0.1,0.4,0.2,0.6,0.3c0.2,0.1,0.3,0.3,0.4,0.5c0.1,0.2,0.1,0.5,0.1,0.8
		c0,0.8-0.3,1.3-1,1.6v0c0.2,0,0.4,0.1,0.5,0.2c0.2,0.1,0.3,0.2,0.4,0.3s0.2,0.3,0.2,0.5c0.1,0.2,0.1,0.5,0.1,0.7s0,0.5-0.1,0.8
		c-0.1,0.2-0.2,0.4-0.4,0.6c-0.2,0.2-0.4,0.3-0.7,0.4c-0.3,0.1-0.6,0.1-0.9,0.1h-2.2V52z M72.6,54.9c0.3,0,0.6-0.1,0.8-0.3
		c0.2-0.2,0.3-0.5,0.3-0.8c0-0.2,0-0.4-0.1-0.5c-0.1-0.1-0.1-0.2-0.2-0.3c-0.1-0.1-0.2-0.1-0.3-0.1c-0.1,0-0.3,0-0.4,0h-0.8v2.1
		H72.6z M72.8,58c0.3,0,0.6-0.1,0.7-0.3c0.2-0.2,0.3-0.5,0.3-0.9c0-0.4-0.1-0.7-0.3-0.9c-0.2-0.2-0.5-0.3-0.8-0.3h-1V58H72.8z"/>
	<path class="st2" d="M78.9,57.8c0,0.1,0,0.2,0.1,0.3c0.1,0.1,0.1,0.1,0.2,0.1c0.1,0,0.1,0,0.2,0v0.7c-0.1,0-0.1,0.1-0.2,0.1
		c-0.1,0-0.2,0-0.3,0c-0.2,0-0.4-0.1-0.6-0.2c-0.2-0.1-0.3-0.3-0.3-0.5h0c-0.1,0.3-0.3,0.4-0.5,0.6c-0.2,0.1-0.5,0.2-0.8,0.2
		c-0.4,0-0.8-0.1-1-0.3c-0.2-0.2-0.4-0.6-0.4-1.1c0-0.3,0-0.5,0.1-0.7c0.1-0.2,0.1-0.3,0.3-0.5c0.1-0.1,0.2-0.2,0.4-0.3
		c0.1-0.1,0.3-0.1,0.5-0.2l0.8-0.2c0.2-0.1,0.3-0.1,0.4-0.2c0.1-0.1,0.2-0.2,0.2-0.5c0-0.2,0-0.4-0.1-0.6c-0.1-0.1-0.3-0.2-0.6-0.2
		c-0.2,0-0.3,0-0.4,0.1c-0.1,0.1-0.2,0.1-0.2,0.2c-0.1,0.1-0.1,0.2-0.1,0.3c0,0.1,0,0.2,0,0.4h-1c0-0.3,0-0.5,0.1-0.7
		c0.1-0.2,0.2-0.4,0.3-0.5c0.1-0.1,0.3-0.3,0.6-0.3c0.2-0.1,0.5-0.1,0.9-0.1c0.2,0,0.4,0,0.6,0.1c0.2,0,0.4,0.1,0.5,0.2
		c0.1,0.1,0.3,0.2,0.4,0.4c0.1,0.2,0.1,0.4,0.1,0.6V57.8z M77.9,56.1c-0.1,0.1-0.2,0.1-0.3,0.1c-0.1,0-0.2,0.1-0.3,0.1
		c-0.1,0-0.2,0.1-0.3,0.1c-0.1,0-0.2,0.1-0.3,0.1c-0.1,0.1-0.3,0.2-0.3,0.3c-0.1,0.1-0.1,0.3-0.1,0.5c0,0.2,0.1,0.4,0.2,0.6
		c0.1,0.2,0.3,0.2,0.5,0.2c0.3,0,0.5-0.1,0.7-0.3c0.2-0.2,0.2-0.5,0.2-0.9V56.1z"/>
	<path class="st2" d="M79.7,53.7h1v0.8h0c0.1-0.3,0.3-0.5,0.5-0.7c0.2-0.2,0.4-0.3,0.7-0.3c0.1,0,0.2,0,0.3,0v1.1c0,0-0.1,0-0.2,0
		c-0.1,0-0.2,0-0.3,0c-0.1,0-0.2,0-0.4,0c-0.1,0-0.2,0.1-0.3,0.2c-0.1,0.1-0.2,0.2-0.2,0.4c-0.1,0.2-0.1,0.3-0.1,0.6v3.1h-1V53.7z"
		/>
	<path class="st2" d="M82.5,53.7h1v0.8h0c0.1-0.3,0.3-0.5,0.5-0.7c0.2-0.2,0.4-0.3,0.7-0.3c0.1,0,0.2,0,0.2,0v1.1c0,0-0.1,0-0.2,0
		c-0.1,0-0.2,0-0.3,0c-0.1,0-0.2,0-0.4,0c-0.1,0-0.2,0.1-0.3,0.2c-0.1,0.1-0.2,0.2-0.2,0.4c-0.1,0.2-0.1,0.3-0.1,0.6v3.1h-1V53.7z"
		/>
	<path class="st2" d="M85.4,51.9h1v1h-1V51.9z M85.4,53.7h1v5.2h-1V53.7z"/>
	<path class="st2" d="M89.4,55.2v-0.1c0-0.1,0-0.2,0-0.3c0-0.1-0.1-0.2-0.1-0.3c-0.1-0.1-0.1-0.1-0.2-0.2c-0.1,0-0.2-0.1-0.3-0.1
		c-0.2,0-0.4,0.1-0.5,0.2c-0.1,0.1-0.2,0.3-0.2,0.5c0,0.2,0.1,0.4,0.2,0.5c0.1,0.1,0.3,0.2,0.6,0.3l0.7,0.2c0.4,0.1,0.7,0.3,0.8,0.5
		c0.2,0.2,0.3,0.5,0.3,1c0,0.3,0,0.5-0.1,0.7c-0.1,0.2-0.2,0.4-0.4,0.5c-0.2,0.1-0.4,0.2-0.6,0.3c-0.2,0.1-0.5,0.1-0.7,0.1
		c-0.3,0-0.6,0-0.8-0.1c-0.2-0.1-0.4-0.2-0.5-0.3c-0.1-0.1-0.2-0.3-0.3-0.5C87,57.8,87,57.6,87,57.4v-0.2h0.9v0.2
		c0,0.3,0.1,0.5,0.2,0.7c0.1,0.2,0.3,0.2,0.6,0.2c0.3,0,0.5-0.1,0.6-0.2c0.1-0.1,0.2-0.3,0.2-0.6c0-0.4-0.2-0.6-0.6-0.8l-0.8-0.3
		c-0.4-0.1-0.7-0.3-0.8-0.5c-0.2-0.2-0.3-0.5-0.3-1c0-0.5,0.2-0.8,0.5-1.1c0.3-0.2,0.7-0.3,1.3-0.3c0.3,0,0.6,0,0.8,0.1
		c0.2,0.1,0.4,0.2,0.5,0.3c0.1,0.1,0.2,0.3,0.2,0.5c0,0.2,0.1,0.3,0.1,0.5v0.2H89.4z"/>
	<path class="st2" d="M90.7,53.7h0.7v-1.5h1v1.5h0.8v0.8h-0.8v3.1c0,0.2,0,0.3,0.1,0.4c0.1,0.1,0.2,0.1,0.4,0.1c0.2,0,0.3,0,0.4,0
		v0.8c-0.2,0.1-0.5,0.1-0.8,0.1c-0.2,0-0.3,0-0.5,0c-0.1,0-0.2-0.1-0.3-0.2c-0.1-0.1-0.2-0.2-0.2-0.4c0-0.2-0.1-0.4-0.1-0.6v-3.2
		h-0.7V53.7z"/>
	<path class="st2" d="M94.5,56.4v0.3c0,0.2,0,0.4,0,0.5c0,0.2,0.1,0.4,0.1,0.5c0.1,0.2,0.1,0.3,0.3,0.4c0.1,0.1,0.3,0.1,0.5,0.1
		c0.2,0,0.3,0,0.4-0.1c0.1-0.1,0.2-0.2,0.2-0.3c0.1-0.1,0.1-0.3,0.1-0.4c0-0.1,0-0.2,0-0.3h1c0,0.6-0.2,1-0.5,1.4
		c-0.3,0.3-0.8,0.5-1.3,0.5c-0.2,0-0.4,0-0.7-0.1c-0.2-0.1-0.4-0.2-0.6-0.3c-0.2-0.2-0.3-0.4-0.5-0.8c-0.1-0.4-0.2-0.8-0.2-1.4
		c0-0.3,0-0.7,0.1-1c0-0.3,0.1-0.6,0.3-0.9c0.1-0.3,0.3-0.5,0.6-0.6c0.2-0.2,0.6-0.2,1-0.2c0.4,0,0.7,0.1,0.9,0.2
		c0.2,0.1,0.4,0.3,0.6,0.5c0.1,0.2,0.2,0.4,0.3,0.7c0.1,0.3,0.1,0.6,0.1,1v0.5H94.5z M96.1,55.7v-0.3c0-0.3-0.1-0.6-0.2-0.8
		c-0.1-0.2-0.3-0.3-0.6-0.3c-0.2,0-0.3,0-0.4,0.1c-0.1,0.1-0.2,0.2-0.3,0.3c-0.1,0.1-0.1,0.3-0.1,0.4c0,0.2,0,0.3,0,0.5v0.1H96.1z"
		/>
	<path class="st2" d="M97.7,53.7h1v0.8h0c0.1-0.3,0.3-0.5,0.5-0.7c0.2-0.2,0.4-0.3,0.7-0.3c0.1,0,0.2,0,0.3,0v1.1c0,0-0.1,0-0.2,0
		c-0.1,0-0.2,0-0.3,0c-0.1,0-0.2,0-0.4,0c-0.1,0-0.2,0.1-0.3,0.2c-0.1,0.1-0.2,0.2-0.2,0.4c-0.1,0.2-0.1,0.3-0.1,0.6v3.1h-1V53.7z"
		/>
	<path class="st2" d="M102.9,55.2v-0.1c0-0.1,0-0.2,0-0.3c0-0.1-0.1-0.2-0.1-0.3c-0.1-0.1-0.1-0.1-0.2-0.2c-0.1,0-0.2-0.1-0.3-0.1
		c-0.2,0-0.4,0.1-0.5,0.2c-0.1,0.1-0.2,0.3-0.2,0.5c0,0.2,0.1,0.4,0.2,0.5c0.1,0.1,0.3,0.2,0.6,0.3l0.7,0.2c0.4,0.1,0.7,0.3,0.8,0.5
		c0.2,0.2,0.3,0.5,0.3,1c0,0.3,0,0.5-0.1,0.7c-0.1,0.2-0.2,0.4-0.4,0.5c-0.2,0.1-0.4,0.2-0.6,0.3c-0.2,0.1-0.5,0.1-0.7,0.1
		c-0.3,0-0.6,0-0.8-0.1c-0.2-0.1-0.4-0.2-0.5-0.3c-0.1-0.1-0.2-0.3-0.3-0.5c-0.1-0.2-0.1-0.4-0.1-0.7v-0.2h0.9v0.2
		c0,0.3,0.1,0.5,0.2,0.7c0.1,0.2,0.3,0.2,0.6,0.2c0.3,0,0.5-0.1,0.6-0.2c0.1-0.1,0.2-0.3,0.2-0.6c0-0.4-0.2-0.6-0.6-0.8l-0.8-0.3
		c-0.4-0.1-0.7-0.3-0.8-0.5c-0.2-0.2-0.3-0.5-0.3-1c0-0.5,0.2-0.8,0.5-1.1c0.3-0.2,0.7-0.3,1.3-0.3c0.3,0,0.6,0,0.8,0.1
		c0.2,0.1,0.4,0.2,0.5,0.3c0.1,0.1,0.2,0.3,0.2,0.5c0,0.2,0.1,0.3,0.1,0.5v0.2H102.9z"/>
	<path class="st2" d="M104.5,52h1.1v1.3c0,0.4-0.1,0.7-0.2,1c-0.2,0.3-0.4,0.4-0.9,0.5v-0.6c0.1,0,0.3-0.1,0.3-0.3s0.1-0.3,0.1-0.5
		v-0.1h-0.5V52z"/>
	<rect x="108.8" y="52" class="st2" width="1.1" height="6.8"/>
	<path class="st2" d="M110.7,53.7h1v0.6h0c0.1-0.2,0.3-0.4,0.5-0.5c0.2-0.1,0.5-0.2,0.8-0.2c0.2,0,0.4,0,0.5,0.1
		c0.2,0,0.3,0.1,0.4,0.2c0.1,0.1,0.2,0.3,0.3,0.4c0.1,0.2,0.1,0.4,0.1,0.7v3.9h-1v-3.5c0-0.3-0.1-0.6-0.2-0.7
		c-0.1-0.1-0.3-0.2-0.6-0.2c-0.2,0-0.4,0.1-0.6,0.2c-0.2,0.2-0.3,0.4-0.3,0.8v3.5h-1V53.7z"/>
	<path class="st2" d="M118.5,57c0,0.3-0.1,0.6-0.1,0.8c-0.1,0.3-0.2,0.5-0.3,0.6c-0.1,0.2-0.3,0.3-0.5,0.4c-0.2,0.1-0.5,0.1-0.8,0.1
		c-0.4,0-0.7-0.1-0.9-0.2c-0.2-0.1-0.4-0.3-0.6-0.6c-0.1-0.2-0.2-0.5-0.3-0.9c-0.1-0.3-0.1-0.7-0.1-1.1c0-0.4,0-0.8,0.1-1.1
		c0.1-0.3,0.2-0.6,0.3-0.9c0.1-0.2,0.3-0.4,0.6-0.6c0.2-0.1,0.6-0.2,0.9-0.2c0.4,0,0.7,0.1,0.9,0.2c0.2,0.1,0.4,0.3,0.5,0.5
		c0.1,0.2,0.2,0.4,0.2,0.6c0,0.2,0.1,0.4,0.1,0.6h-1c0-0.1,0-0.2,0-0.4c0-0.1-0.1-0.2-0.1-0.4c-0.1-0.1-0.1-0.2-0.2-0.3
		c-0.1-0.1-0.2-0.1-0.4-0.1c-0.2,0-0.3,0-0.5,0.1c-0.1,0.1-0.2,0.2-0.3,0.4c-0.1,0.2-0.1,0.4-0.1,0.6c0,0.2,0,0.5,0,0.8
		c0,0.3,0,0.5,0,0.8c0,0.2,0.1,0.4,0.1,0.6c0.1,0.2,0.2,0.3,0.3,0.4s0.3,0.1,0.5,0.1c0.3,0,0.5-0.1,0.6-0.3c0.1-0.2,0.2-0.5,0.2-0.9
		H118.5z"/>
	<path class="st2" d="M120.8,59c-0.4,0-0.7-0.1-0.9-0.2c-0.2-0.1-0.4-0.3-0.6-0.6c-0.2-0.2-0.3-0.5-0.3-0.9
		c-0.1-0.3-0.1-0.7-0.1-1.1c0-0.4,0-0.8,0.1-1.1c0.1-0.3,0.2-0.6,0.3-0.9c0.1-0.2,0.3-0.4,0.6-0.6c0.2-0.1,0.6-0.2,0.9-0.2
		c0.4,0,0.7,0.1,0.9,0.2c0.2,0.1,0.4,0.3,0.6,0.6c0.1,0.2,0.3,0.5,0.3,0.9c0.1,0.3,0.1,0.7,0.1,1.1c0,0.4,0,0.8-0.1,1.1
		c-0.1,0.3-0.2,0.6-0.3,0.9c-0.2,0.2-0.3,0.4-0.6,0.6C121.4,58.9,121.1,59,120.8,59 M119.9,56.3c0,0.3,0,0.6,0,0.9
		c0,0.2,0.1,0.5,0.1,0.6c0.1,0.2,0.2,0.3,0.3,0.4c0.1,0.1,0.3,0.1,0.5,0.1c0.2,0,0.3,0,0.5-0.1c0.1-0.1,0.2-0.2,0.3-0.4
		c0.1-0.2,0.1-0.4,0.1-0.6c0-0.2,0-0.5,0-0.9c0-0.3,0-0.5,0-0.8c0-0.2-0.1-0.4-0.1-0.6c-0.1-0.2-0.2-0.3-0.3-0.4
		c-0.1-0.1-0.3-0.1-0.5-0.1c-0.2,0-0.3,0-0.5,0.1c-0.1,0.1-0.2,0.2-0.3,0.4c-0.1,0.2-0.1,0.4-0.1,0.6
		C119.9,55.7,119.9,56,119.9,56.3"/>
	<path class="st2" d="M123.3,53.7h1v0.6h0c0.1-0.2,0.3-0.4,0.5-0.5c0.2-0.1,0.5-0.2,0.7-0.2c0.2,0,0.3,0,0.5,0.1
		c0.1,0,0.2,0.1,0.3,0.2c0.1,0.1,0.2,0.2,0.2,0.2c0.1,0.1,0.1,0.2,0.1,0.3c0.1-0.2,0.3-0.4,0.5-0.6c0.2-0.1,0.5-0.2,0.8-0.2
		c0.4,0,0.7,0.1,0.9,0.3c0.2,0.2,0.4,0.6,0.4,1.1v3.9h-1v-3.5c0-0.3-0.1-0.6-0.2-0.7c-0.1-0.1-0.3-0.2-0.5-0.2
		c-0.2,0-0.4,0.1-0.6,0.2c-0.2,0.2-0.3,0.4-0.3,0.8v3.5h-1v-3.5c0-0.3-0.1-0.6-0.2-0.7c-0.1-0.1-0.3-0.2-0.5-0.2
		c-0.2,0-0.4,0.1-0.6,0.2c-0.2,0.2-0.3,0.4-0.3,0.8v3.5h-1V53.7z"/>
	<path class="st2" d="M130.9,56.4v0.3c0,0.2,0,0.4,0,0.5c0,0.2,0.1,0.4,0.1,0.5c0.1,0.2,0.1,0.3,0.3,0.4c0.1,0.1,0.3,0.1,0.5,0.1
		c0.2,0,0.3,0,0.4-0.1c0.1-0.1,0.2-0.2,0.3-0.3c0.1-0.1,0.1-0.3,0.1-0.4c0-0.1,0-0.2,0-0.3h1c0,0.6-0.2,1-0.5,1.4
		c-0.3,0.3-0.8,0.5-1.3,0.5c-0.2,0-0.4,0-0.7-0.1c-0.2-0.1-0.4-0.2-0.6-0.3c-0.2-0.2-0.3-0.4-0.5-0.8c-0.1-0.4-0.2-0.8-0.2-1.4
		c0-0.3,0-0.7,0.1-1c0-0.3,0.1-0.6,0.3-0.9c0.1-0.3,0.3-0.5,0.6-0.6c0.2-0.2,0.6-0.2,1-0.2c0.4,0,0.7,0.1,0.9,0.2
		c0.2,0.1,0.4,0.3,0.6,0.5c0.1,0.2,0.2,0.4,0.3,0.7c0.1,0.3,0.1,0.6,0.1,1v0.5H130.9z M132.5,55.7v-0.3c0-0.3-0.1-0.6-0.2-0.8
		c-0.1-0.2-0.3-0.3-0.6-0.3c-0.2,0-0.3,0-0.4,0.1c-0.1,0.1-0.2,0.2-0.3,0.3c-0.1,0.1-0.1,0.3-0.1,0.4c0,0.2,0,0.3,0,0.5v0.1H132.5z"
		/>
	<path class="st2" d="M68.4,69.2l0,0.1c0,0.1,0,0.1,0,0.2c0,0,0,0.1,0,0.1c0,0.1,0,0.2,0.1,0.3c0.1,0.1,0.2,0.1,0.4,0.1
		c0.1,0,0.2,0,0.2,0c0.1,0,0.2-0.1,0.2-0.1c0.1-0.1,0.1-0.1,0.2-0.2c0-0.1,0.1-0.2,0.1-0.3c0-0.1-0.1-0.3-0.2-0.4
		c-0.1-0.1-0.3-0.2-0.5-0.3c-0.3-0.1-0.6-0.3-0.7-0.4c-0.2-0.2-0.2-0.4-0.2-0.6c0-0.3,0-0.5,0.1-0.8c0.1-0.2,0.2-0.4,0.4-0.5
		c0.2-0.1,0.4-0.3,0.6-0.3c0.2-0.1,0.4-0.1,0.7-0.1c0.4,0,0.7,0.1,0.9,0.2c0.2,0.1,0.3,0.4,0.3,0.7c0,0,0,0.1,0,0.2
		c0,0.1,0,0.1,0,0.2l0,0.1h-0.9c0-0.1,0-0.1,0-0.2c0,0,0-0.1,0-0.1c0-0.3-0.1-0.4-0.4-0.4c-0.1,0-0.2,0-0.3,0.1
		c-0.1,0-0.2,0.1-0.2,0.2c-0.1,0.1-0.1,0.1-0.1,0.2c0,0.1,0,0.2,0,0.3c0,0.1,0,0.2,0.1,0.2c0.1,0.1,0.2,0.1,0.3,0.2l0.7,0.3
		c0.2,0.1,0.4,0.3,0.5,0.4c0.1,0.1,0.2,0.3,0.2,0.5c0,0.1,0,0.1,0,0.2c0,0.1,0,0.1,0,0.2c-0.1,0.5-0.3,0.9-0.7,1.1
		c-0.3,0.2-0.8,0.3-1.3,0.3c-0.4,0-0.8-0.1-1-0.2c-0.2-0.2-0.3-0.4-0.3-0.7c0-0.1,0-0.3,0.1-0.4l0-0.2H68.4z"/>
	<polygon class="st2" points="71,70.7 72,66 73,66 72,70.7 	"/>
	<polygon class="st2" points="75.1,66 75.5,69.2 75.5,69.2 76.2,66 77.1,66 76.1,70.6 75,70.6 74.6,67.4 74.5,67.4 73.9,70.6 
		73,70.6 74,66 	"/>
	<path class="st2" d="M79.7,67.5c0-0.1,0-0.2,0-0.3c0-0.1,0-0.2,0-0.2c0-0.2,0-0.3-0.1-0.4c-0.1-0.1-0.2-0.1-0.3-0.1
		c-0.1,0-0.2,0-0.3,0.1c-0.1,0.1-0.2,0.2-0.2,0.3c-0.1,0.1-0.1,0.3-0.2,0.6c-0.1,0.2-0.1,0.5-0.2,0.8c-0.1,0.3-0.1,0.5-0.1,0.7
		c0,0.2,0,0.3,0,0.5c0,0.2,0,0.4,0.1,0.5c0.1,0.1,0.2,0.1,0.3,0.1c0.1,0,0.2,0,0.2,0c0.1,0,0.2-0.1,0.2-0.2c0.1-0.1,0.1-0.2,0.2-0.4
		c0.1-0.2,0.1-0.4,0.2-0.6h0.9c-0.1,0.3-0.1,0.5-0.2,0.7c-0.1,0.2-0.2,0.4-0.3,0.6c-0.1,0.2-0.3,0.3-0.5,0.4
		c-0.2,0.1-0.5,0.2-0.8,0.2c-0.2,0-0.4,0-0.6-0.1c-0.2-0.1-0.3-0.1-0.4-0.2c-0.1-0.1-0.2-0.2-0.2-0.4c0-0.2-0.1-0.3-0.1-0.5
		c0-0.2,0-0.4,0-0.6c0-0.2,0.1-0.4,0.1-0.7c0.1-0.4,0.2-0.7,0.3-1c0.1-0.3,0.2-0.6,0.4-0.8c0.2-0.2,0.3-0.4,0.6-0.5
		c0.2-0.1,0.5-0.2,0.9-0.2c0.2,0,0.4,0,0.6,0.1c0.2,0.1,0.3,0.1,0.4,0.2c0.1,0.1,0.1,0.2,0.2,0.3c0,0.1,0,0.3,0,0.4
		c0,0.1,0,0.2,0,0.3c0,0.1,0,0.2-0.1,0.3H79.7z"/>
	<polygon class="st2" points="84.5,66 84.3,66.7 82.7,66.7 82.4,67.8 84,67.8 83.9,68.6 82.3,68.6 82,69.9 83.8,69.9 83.6,70.6 
		81.8,70.6 80.9,70.6 81.9,66 	"/>
	<path class="st2" d="M87.2,70.7l0.7-3.3h-0.9l0.1-0.6h0.1c0.3,0,0.6-0.1,0.8-0.2c0.2-0.1,0.4-0.3,0.5-0.6h0.7l-1,4.6H87.2z"/>
	<path class="st2" d="M90.5,69.6c0,0.1,0,0.1,0,0.2c0,0.1,0,0.2,0.1,0.2c0,0.1,0.1,0.1,0.3,0.1c0.1,0,0.2,0,0.3-0.1
		c0.1-0.1,0.2-0.1,0.2-0.2c0.1-0.1,0.1-0.2,0.2-0.4c0-0.1,0.1-0.3,0.1-0.5l0-0.2h0c-0.1,0.1-0.2,0.2-0.4,0.3
		c-0.2,0.1-0.3,0.1-0.6,0.1c-0.3,0-0.5-0.1-0.7-0.3c-0.1-0.2-0.2-0.4-0.2-0.7c0-0.2,0-0.3,0.1-0.5c0.1-0.5,0.3-0.9,0.6-1.2
		c0.3-0.3,0.7-0.4,1.2-0.4c0.2,0,0.4,0,0.6,0.1c0.1,0.1,0.3,0.1,0.4,0.2c0.1,0.1,0.1,0.2,0.2,0.4c0,0.1,0.1,0.3,0.1,0.5
		c0,0.2,0,0.3,0,0.5c0,0.2-0.1,0.4-0.1,0.5c-0.1,0.3-0.1,0.6-0.2,1c-0.1,0.3-0.2,0.6-0.3,0.8c-0.2,0.2-0.3,0.4-0.6,0.6
		c-0.2,0.1-0.6,0.2-0.9,0.2c-0.1,0-0.3,0-0.4,0s-0.2-0.1-0.3-0.1c-0.1-0.1-0.2-0.2-0.2-0.3c-0.1-0.1-0.1-0.2-0.1-0.4
		c0,0,0-0.1,0-0.1c0,0,0-0.1,0-0.2H90.5z M90.8,67.5c0,0.2-0.1,0.3-0.1,0.4c0,0.2,0,0.3,0.1,0.3c0.1,0.1,0.2,0.1,0.3,0.1
		c0.2,0,0.3-0.1,0.4-0.2c0.1-0.1,0.2-0.4,0.3-0.7c0-0.2,0.1-0.3,0.1-0.5c0-0.1,0-0.2-0.1-0.3c-0.1-0.1-0.2-0.1-0.3-0.1
		c-0.1,0-0.2,0-0.3,0.1c-0.1,0-0.1,0.1-0.2,0.2c-0.1,0.1-0.1,0.2-0.1,0.3C90.9,67.3,90.8,67.4,90.8,67.5"/>
	<path class="st2" d="M95.5,67.2c0,0,0-0.1,0-0.1c0,0,0-0.1,0-0.1c0-0.1,0-0.2-0.1-0.2c-0.1-0.1-0.1-0.1-0.3-0.1
		c-0.1,0-0.2,0-0.3,0.1c-0.1,0.1-0.2,0.1-0.2,0.2c-0.1,0.1-0.1,0.2-0.2,0.4c0,0.1-0.1,0.3-0.1,0.5L94.3,68h0
		c0.1-0.1,0.2-0.2,0.4-0.3c0.2-0.1,0.3-0.1,0.6-0.1c0.3,0,0.5,0.1,0.7,0.3c0.1,0.2,0.2,0.4,0.2,0.7c0,0.2,0,0.3-0.1,0.5
		c-0.1,0.5-0.3,1-0.6,1.2c-0.3,0.3-0.7,0.4-1.2,0.4c-0.2,0-0.4,0-0.6-0.1c-0.1-0.1-0.3-0.1-0.4-0.2c-0.1-0.1-0.2-0.2-0.2-0.4
		s-0.1-0.3-0.1-0.5c0-0.2,0-0.3,0-0.5c0-0.2,0.1-0.3,0.1-0.5c0.1-0.3,0.1-0.6,0.2-1c0.1-0.3,0.2-0.6,0.3-0.8
		c0.1-0.2,0.3-0.4,0.6-0.6c0.2-0.1,0.6-0.2,0.9-0.2c0.1,0,0.3,0,0.4,0s0.2,0.1,0.3,0.1c0.1,0.1,0.2,0.2,0.2,0.3
		c0.1,0.1,0.1,0.2,0.1,0.4c0,0.1,0,0.2,0,0.3H95.5z M94.1,69.2c0,0.2-0.1,0.3-0.1,0.5c0,0.1,0,0.2,0.1,0.3c0.1,0.1,0.2,0.1,0.3,0.1
		c0.1,0,0.2,0,0.3-0.1c0.1,0,0.1-0.1,0.2-0.2c0.1-0.1,0.1-0.2,0.1-0.3c0-0.1,0.1-0.2,0.1-0.4c0-0.1,0-0.2,0-0.2c0-0.1,0-0.1,0-0.2
		c0-0.2,0-0.3-0.1-0.3c-0.1-0.1-0.2-0.1-0.3-0.1c-0.2,0-0.3,0.1-0.4,0.2S94.2,68.9,94.1,69.2"/>
	<path class="st2" d="M99.2,70.7h-2.9c0-0.2,0.1-0.4,0.2-0.6c0.1-0.2,0.2-0.3,0.3-0.5c0.1-0.2,0.3-0.3,0.4-0.5
		c0.2-0.2,0.3-0.3,0.5-0.5l0.5-0.4c0.1-0.1,0.2-0.2,0.3-0.3c0.1-0.1,0.1-0.2,0.2-0.2c0-0.1,0.1-0.2,0.1-0.3c0-0.1,0.1-0.2,0.1-0.3
		c0,0,0-0.1,0-0.1c0,0,0-0.1,0-0.1c0-0.2-0.1-0.4-0.4-0.4c-0.1,0-0.2,0-0.3,0.1c-0.1,0-0.1,0.1-0.2,0.2C98.1,67,98,67.1,98,67.2
		c0,0.1-0.1,0.2-0.1,0.3H97l0-0.2c0.1-0.4,0.3-0.8,0.6-1c0.3-0.2,0.7-0.3,1.2-0.3c0.4,0,0.7,0.1,0.9,0.2c0.2,0.2,0.3,0.4,0.3,0.7
		c0,0.2,0,0.4-0.1,0.5c0,0.2-0.1,0.3-0.2,0.5c-0.1,0.2-0.2,0.3-0.3,0.4c-0.1,0.1-0.3,0.3-0.5,0.4l-0.6,0.5c-0.2,0.1-0.3,0.3-0.4,0.4
		c-0.1,0.1-0.2,0.2-0.2,0.3h1.8L99.2,70.7z"/>
</g>
</svg>
