<?xml version="1.0" encoding="utf-8"?>
<!-- Generator: Adobe Illustrator 22.0.1, SVG Export Plug-In . SVG Version: 6.00 Build 0)  -->
<svg version="1.1" id="Layer_1" xmlns="http://www.w3.org/2000/svg" xmlns:xlink="http://www.w3.org/1999/xlink" x="0px" y="0px"
	 viewBox="0 0 186.7 290.3" style="enable-background:new 0 0 186.7 290.3;" xml:space="preserve">
<style type="text/css">
	.st0{clip-path:url(#SVGID_2_);fill:url(#SVGID_3_);}
	.st1{fill:#FBD3A9;}
	.st2{clip-path:url(#SVGID_5_);fill:url(#SVGID_6_);}
	.st3{fill:#965BA5;}
	.st4{fill:#E5F1FA;}
	.st5{clip-path:url(#SVGID_8_);fill:url(#SVGID_9_);}
	.st6{clip-path:url(#SVGID_11_);fill:url(#SVGID_12_);}
	.st7{clip-path:url(#SVGID_14_);fill:url(#SVGID_15_);}
	.st8{clip-path:url(#SVGID_17_);fill:url(#SVGID_18_);}
	.st9{clip-path:url(#SVGID_20_);fill:url(#SVGID_21_);}
	.st10{clip-path:url(#SVGID_23_);fill:url(#SVGID_24_);}
	.st11{clip-path:url(#SVGID_26_);fill:url(#SVGID_27_);}
	.st12{clip-path:url(#SVGID_29_);fill:url(#SVGID_30_);}
	.st13{clip-path:url(#SVGID_32_);fill:url(#SVGID_33_);}
	.st14{clip-path:url(#SVGID_35_);fill:url(#SVGID_36_);}
	.st15{clip-path:url(#SVGID_38_);fill:url(#SVGID_39_);}
	.st16{clip-path:url(#SVGID_41_);fill:url(#SVGID_42_);}
	.st17{clip-path:url(#SVGID_44_);fill:url(#SVGID_45_);}
	.st18{clip-path:url(#SVGID_47_);fill:url(#SVGID_48_);}
	.st19{clip-path:url(#SVGID_50_);fill:url(#SVGID_51_);}
	.st20{fill:#32465A;}
	.st21{clip-path:url(#SVGID_53_);fill:url(#SVGID_54_);}
	.st22{clip-path:url(#SVGID_56_);fill:url(#SVGID_57_);}
	.st23{clip-path:url(#SVGID_59_);fill:url(#SVGID_60_);}
	.st24{clip-path:url(#SVGID_62_);fill:url(#SVGID_63_);}
	.st25{clip-path:url(#SVGID_65_);fill:url(#SVGID_66_);}
	.st26{clip-path:url(#SVGID_68_);fill:url(#SVGID_69_);}
	.st27{clip-path:url(#SVGID_71_);fill:url(#SVGID_72_);}
	.st28{clip-path:url(#SVGID_74_);fill:url(#SVGID_75_);}
	.st29{clip-path:url(#SVGID_77_);fill:url(#SVGID_78_);}
	.st30{clip-path:url(#SVGID_80_);fill:url(#SVGID_81_);}
	.st31{clip-path:url(#SVGID_83_);fill:url(#SVGID_84_);}
	.st32{clip-path:url(#SVGID_86_);fill:url(#SVGID_87_);}
	.st33{clip-path:url(#SVGID_89_);fill:url(#SVGID_90_);}
	.st34{clip-path:url(#SVGID_92_);fill:url(#SVGID_93_);}
	.st35{clip-path:url(#SVGID_95_);fill:url(#SVGID_96_);}
	.st36{clip-path:url(#SVGID_98_);fill:url(#SVGID_99_);}
	.st37{clip-path:url(#SVGID_101_);fill:url(#SVGID_102_);}
	.st38{clip-path:url(#SVGID_104_);fill:url(#SVGID_105_);}
	.st39{clip-path:url(#SVGID_107_);fill:url(#SVGID_108_);}
	.st40{clip-path:url(#SVGID_110_);fill:url(#SVGID_111_);}
	.st41{clip-path:url(#SVGID_113_);fill:url(#SVGID_114_);}
	.st42{clip-path:url(#SVGID_116_);fill:url(#SVGID_117_);}
</style>
<g>
	<defs>
		<path id="SVGID_1_" d="M49.6,24.8c-0.1,0.2-0.2,0.4-0.1,0.6c0.1,0.2,0.3,0.3,0.5,0.3c3.4,0,7.5,1.3,11.3,3.8
			C65.6,32.2,72,40,70,43.2c-0.2,0.3-0.1,0.6,0.2,0.8c0.3,0.2,0.6,0.1,0.8-0.2c2-3.2,11.3-1,16.1,2c4.7,3,10.6,10.6,8.6,13.7
			c-0.2,0.3-0.1,0.6,0.2,0.8c0.3,0.2,0.6,0.1,0.8-0.2c2.1-3.3,12.6-0.2,16.1,2c4.7,3,10.6,10.6,8.6,13.7c-0.2,0.3-0.1,0.6,0.2,0.8
			c0.3,0.2,0.6,0.1,0.8-0.2c2-3.1,12-0.6,16.1,2c4.2,2.7,10.7,10.5,8.6,13.7c-0.2,0.3-0.1,0.6,0.2,0.8c0.3,0.2,0.6,0.1,0.8-0.2
			c2-3.2,11.3-1,16.1,2c3.8,2.4,6.8,5.6,8.2,8.7c0.1,0.2,0.3,0.3,0.5,0.3c0.2,0,0.4-0.1,0.5-0.3c4.9-11.1,5.1-27.2-1.9-41.3
			c-7-14.2-19.4-27.4-34.9-37.2C120.9,15,103.7,9.4,87.9,9c-0.4,0-0.8,0-1.2,0C71.3,9,57.4,15.9,49.6,24.8"/>
	</defs>
	<clipPath id="SVGID_2_">
		<use xlink:href="#SVGID_1_"  style="overflow:visible;"/>
	</clipPath>
	
		<linearGradient id="SVGID_3_" gradientUnits="userSpaceOnUse" x1="1.2952" y1="381.2763" x2="2.2952" y2="381.2763" gradientTransform="matrix(-32.513 51.0684 51.0684 32.513 -19293.3828 -12440.5205)">
		<stop  offset="0" style="stop-color:#8E6D9B"/>
		<stop  offset="1" style="stop-color:#6C3F99"/>
	</linearGradient>
	<polygon class="st0" points="221.2,36.3 141.1,162.1 6.5,76.4 86.6,-49.3 	"/>
</g>
<path class="st1" d="M130.1,127.8c0,0-1.1-5.6,0.4-8.3c2.6-5,6.8-8.7,4-13.7c-3.6-6.6-11.6-6.7-15-4.3c-2.2,1.5-1.9,3.3-3.1,4.9
	c-2.1,2.8-3.6,4.1-3.3,4.7c0.3,0.6,2.4,1.1,2.4,1.1l-2.2,7.1l4.2,0.8l-2,6.8L130.1,127.8z"/>
<g>
	<defs>
		<polygon id="SVGID_4_" points="115.5,126.9 123.6,128.7 124.5,121.3 117.5,120.1 		"/>
	</defs>
	<clipPath id="SVGID_5_">
		<use xlink:href="#SVGID_4_"  style="overflow:visible;"/>
	</clipPath>
	
		<linearGradient id="SVGID_6_" gradientUnits="userSpaceOnUse" x1="-12.5679" y1="396.5397" x2="-11.5679" y2="396.5397" gradientTransform="matrix(6.752 9.1019 -9.1019 6.752 3808.8789 -2445.7251)">
		<stop  offset="0" style="stop-color:#46392B"/>
		<stop  offset="0.2544" style="stop-color:#7F6C57"/>
		<stop  offset="0.5155" style="stop-color:#B1977A"/>
		<stop  offset="0.736" style="stop-color:#D7B793"/>
		<stop  offset="0.9041" style="stop-color:#EFCAA2"/>
		<stop  offset="1" style="stop-color:#FAD3A9"/>
	</linearGradient>
	<polygon class="st2" points="111.4,123.2 118.7,133 128.6,125.6 121.3,115.8 	"/>
</g>
<polygon class="st3" points="117.2,126.3 115,126.4 113.4,130.3 116.1,127.5 "/>
<path class="st4" d="M130.5,125.2v-0.6c0,0-11.7,0.3-14.4,2.2c-2.8,1.9-5.8,10.2-5.8,10.2L130.5,125.2z"/>
<g>
	<defs>
		<polygon id="SVGID_7_" points="113.9,191.3 123.9,274.3 132.4,274.3 115.4,191.3 		"/>
	</defs>
	<clipPath id="SVGID_8_">
		<use xlink:href="#SVGID_7_"  style="overflow:visible;"/>
	</clipPath>
	
		<linearGradient id="SVGID_9_" gradientUnits="userSpaceOnUse" x1="0.1845" y1="382.6237" x2="1.1845" y2="382.6237" gradientTransform="matrix(6.3135 -115.3861 115.3861 6.3135 -44031.4336 -2088.4692)">
		<stop  offset="0" style="stop-color:#68819F"/>
		<stop  offset="2.682090e-03" style="stop-color:#67809F"/>
		<stop  offset="0.1595" style="stop-color:#516680"/>
		<stop  offset="0.3191" style="stop-color:#3F5268"/>
		<stop  offset="0.4816" style="stop-color:#324457"/>
		<stop  offset="0.6472" style="stop-color:#28394B"/>
		<stop  offset="0.8175" style="stop-color:#223445"/>
		<stop  offset="1" style="stop-color:#213243"/>
	</linearGradient>
	<polygon class="st5" points="132.4,275.4 137,191.5 114,190.2 109.4,274.1 	"/>
</g>
<g>
	<defs>
		<polygon id="SVGID_10_" points="115.4,191.3 127.7,274.3 132.4,274.3 132.4,274.3 130.2,193.1 		"/>
	</defs>
	<clipPath id="SVGID_11_">
		<use xlink:href="#SVGID_10_"  style="overflow:visible;"/>
	</clipPath>
	
		<linearGradient id="SVGID_12_" gradientUnits="userSpaceOnUse" x1="0.3605" y1="383.3112" x2="1.3605" y2="383.3112" gradientTransform="matrix(-34.6167 -184.4119 184.4119 -34.6167 -70525.8047 13701.1328)">
		<stop  offset="0" style="stop-color:#3D4F64"/>
		<stop  offset="0.6335" style="stop-color:#3D4F64"/>
		<stop  offset="0.7839" style="stop-color:#3C4D62"/>
		<stop  offset="0.838" style="stop-color:#38485C"/>
		<stop  offset="0.8766" style="stop-color:#304053"/>
		<stop  offset="0.9076" style="stop-color:#253546"/>
		<stop  offset="0.93" style="stop-color:#192A3A"/>
		<stop  offset="1" style="stop-color:#192A3A"/>
	</linearGradient>
	<polygon class="st6" points="147.5,271.5 131.9,188.2 100.3,194.1 116,277.4 	"/>
</g>
<g>
	<defs>
		<polygon id="SVGID_13_" points="115.4,191.3 127.7,274.3 132.4,274.3 130.2,193.1 115.4,191.3 		"/>
	</defs>
	<clipPath id="SVGID_14_">
		<use xlink:href="#SVGID_13_"  style="overflow:visible;"/>
	</clipPath>
	
		<linearGradient id="SVGID_15_" gradientUnits="userSpaceOnUse" x1="-0.1044" y1="382.3245" x2="0.8956" y2="382.3245" gradientTransform="matrix(21.0037 -96.509 96.509 21.0037 -36785.3984 -7744.3677)">
		<stop  offset="0" style="stop-color:#68819F"/>
		<stop  offset="1" style="stop-color:#213243"/>
	</linearGradient>
	<polygon class="st7" points="131.7,277.9 149.7,195 116.1,187.7 98.1,270.6 	"/>
</g>
<g>
	<defs>
		<path id="SVGID_16_" d="M116.5,128.1c-3.2,2.2-8.7,9.8-8.1,21.5c0.6,11.7,4.4,44.9,4.4,44.9l20.8,5.1c0,0-1.6-14.2-1.2-23.7
			c0.5-13,3-22.9,2.8-29.5c-0.3-11.4-4.7-21.2-4.7-21.2S119.7,125.9,116.5,128.1"/>
	</defs>
	<clipPath id="SVGID_17_">
		<use xlink:href="#SVGID_16_"  style="overflow:visible;"/>
	</clipPath>
	
		<linearGradient id="SVGID_18_" gradientUnits="userSpaceOnUse" x1="0.6179" y1="382.6156" x2="1.6179" y2="382.6156" gradientTransform="matrix(-20.1969 -107.5939 107.5939 -20.1969 -41016.293 8045.4482)">
		<stop  offset="0" style="stop-color:#68819F"/>
		<stop  offset="1" style="stop-color:#2E4054"/>
	</linearGradient>
	<polygon class="st8" points="148.9,197 134.5,120.2 94.3,127.8 108.7,204.6 	"/>
</g>
<g>
	<defs>
		<path id="SVGID_19_" d="M116.5,128.1c-2.5,1.7-6.5,6.8-7.7,14.5l-0.3,2c0,0,0,0,0,0v0c0-0.1,3.6-8,6.9-12.8
			c3.4-4.8,13-6.4,13.1-6.4C125.3,125.7,118.9,126.5,116.5,128.1"/>
	</defs>
	<clipPath id="SVGID_20_">
		<use xlink:href="#SVGID_19_"  style="overflow:visible;"/>
	</clipPath>
	
		<linearGradient id="SVGID_21_" gradientUnits="userSpaceOnUse" x1="3.7562" y1="373.972" x2="4.7562" y2="373.972" gradientTransform="matrix(-3.3226 -17.7002 17.7002 -3.3226 -6486.561 1453.4475)">
		<stop  offset="0" style="stop-color:#68819F"/>
		<stop  offset="1" style="stop-color:#35495E"/>
	</linearGradient>
	<polygon class="st9" points="132.1,143.9 127.9,121.7 105,126 109.2,148.2 	"/>
</g>
<g>
	<defs>
		<polygon id="SVGID_22_" points="113.3,119.3 117.5,120.1 124.5,121.3 124.5,121.3 121.2,113.7 115.5,112.2 		"/>
	</defs>
	<clipPath id="SVGID_23_">
		<use xlink:href="#SVGID_22_"  style="overflow:visible;"/>
	</clipPath>
	
		<linearGradient id="SVGID_24_" gradientUnits="userSpaceOnUse" x1="10.0761" y1="386.4787" x2="11.0761" y2="386.4787" gradientTransform="matrix(-19.2412 0.9136 -0.9136 -19.2412 667.1937 7543.8022)">
		<stop  offset="0" style="stop-color:#FAD3A9"/>
		<stop  offset="0.1247" style="stop-color:#DCBB97"/>
		<stop  offset="0.4431" style="stop-color:#9C866C"/>
		<stop  offset="0.7052" style="stop-color:#705F4C"/>
		<stop  offset="0.8977" style="stop-color:#534435"/>
		<stop  offset="1" style="stop-color:#46392B"/>
	</linearGradient>
	<polygon class="st10" points="124.5,111.6 112.8,112.2 113.3,121.9 124.9,121.3 	"/>
</g>
<g>
	<defs>
		<path id="SVGID_25_" d="M122,96.7c-1.9,0.8-2.5,4.8-2.5,4.8s9.9,0.8,10.7,3.4c0.8,2.6-3.8,5.7-3.8,5.7l1.6,1.1
			c0,0,2.2-3.7,3.4-2.4c1.2,1.2-0.4,9.4-0.4,9.4s6.1-6.7,6.5-9.2c0.4-2.5-0.1-5.8-2.8-7.9c-2.5-1.9-9.2-5-11.9-5
			C122.5,96.6,122.2,96.6,122,96.7"/>
	</defs>
	<clipPath id="SVGID_26_">
		<use xlink:href="#SVGID_25_"  style="overflow:visible;"/>
	</clipPath>
	
		<linearGradient id="SVGID_27_" gradientUnits="userSpaceOnUse" x1="4.2171" y1="387.6693" x2="5.2171" y2="387.6693" gradientTransform="matrix(-32.0697 17.9988 -17.9988 -32.0697 7270.4458 12447.9062)">
		<stop  offset="0" style="stop-color:#68819F"/>
		<stop  offset="1" style="stop-color:#35495E"/>
	</linearGradient>
	<polygon class="st11" points="133.5,88.7 110.1,101.9 123.9,126.5 147.3,113.4 	"/>
</g>
<g>
	<defs>
		<path id="SVGID_28_" d="M117.1,107.7c0,0,6.5-0.9,6.4-1.4c-0.1-0.5-6.1-1.9-6.1-1.9L117.1,107.7z"/>
	</defs>
	<clipPath id="SVGID_29_">
		<use xlink:href="#SVGID_28_"  style="overflow:visible;"/>
	</clipPath>
	
		<linearGradient id="SVGID_30_" gradientUnits="userSpaceOnUse" x1="6.5696" y1="373.204" x2="7.5696" y2="373.204" gradientTransform="matrix(-5.5457 -14.2944 14.2944 -5.5457 -5177.8389 2270.0496)">
		<stop  offset="0" style="stop-color:#FAD3A9"/>
		<stop  offset="0.1247" style="stop-color:#DCBB97"/>
		<stop  offset="0.4431" style="stop-color:#9C866C"/>
		<stop  offset="0.7052" style="stop-color:#705F4C"/>
		<stop  offset="0.8977" style="stop-color:#534435"/>
		<stop  offset="1" style="stop-color:#46392B"/>
	</linearGradient>
	<polygon class="st12" points="124.6,107.3 122.7,102.2 116,104.8 117.9,109.9 	"/>
</g>
<g>
	<defs>
		<path id="SVGID_31_" d="M124.5,102.2c0.9,0.4,1.9,0.4,2.1,1.1c0.2,0.7-1.7,1.3-1.5,2.1c0.2,1.2,1.6,1.8,1.7,2.6
			c0.1,1.1-1,2.8-1,2.8l2.1,0.9c0,0,2.2-3.7,3.4-2.4c1.2,1.2-0.4,9.4-0.4,9.4s6.1-6.7,6.5-9.2c0.1-0.7,0.2-1.5,0.1-2.4
			c-0.1-1.6-0.8-3.6-3-4.8c-1.4-0.7-3-1-4.5-1C127.1,101.3,124.5,102.2,124.5,102.2"/>
	</defs>
	<clipPath id="SVGID_32_">
		<use xlink:href="#SVGID_31_"  style="overflow:visible;"/>
	</clipPath>
	
		<linearGradient id="SVGID_33_" gradientUnits="userSpaceOnUse" x1="3.3199" y1="377.6002" x2="4.3199" y2="377.6002" gradientTransform="matrix(-7.8 -25.3863 25.3863 -7.8 -9425.9561 3149.1199)">
		<stop  offset="0" style="stop-color:#68819F"/>
		<stop  offset="1" style="stop-color:#35495E"/>
	</linearGradient>
	<polygon class="st13" points="142.5,117.2 136.5,97.7 119.7,102.8 125.6,122.3 	"/>
</g>
<g>
	<defs>
		<path id="SVGID_34_" d="M126.7,130.8c-1.2,6.8,2.7,27.2,3.8,29.1c1.8,3.2-2.2,22.2-2.9,22.3c0.1,1.5-4.9,11.5-4.7,12.9l-1,1.5
			l11.8,2.9c0,0-1.6-14.2-1.2-23.7c0.2-6,0.9-11.3,1.5-15.9c0,0,1.3-9.1,1.3-12.8c0-3.7-1.5-11.8-1.5-11.8s-3.6-6.4-5.7-6.4
			C127.5,128.9,127,129.4,126.7,130.8"/>
	</defs>
	<clipPath id="SVGID_35_">
		<use xlink:href="#SVGID_34_"  style="overflow:visible;"/>
	</clipPath>
	
		<linearGradient id="SVGID_36_" gradientUnits="userSpaceOnUse" x1="1.6334" y1="383.3552" x2="2.6334" y2="383.3552" gradientTransform="matrix(-79.2041 -67.4285 67.4285 -79.2041 -25502.4629 30713.1699)">
		<stop  offset="0" style="stop-color:#68819F"/>
		<stop  offset="0.1984" style="stop-color:#657E9C"/>
		<stop  offset="0.376" style="stop-color:#5F7793"/>
		<stop  offset="0.5456" style="stop-color:#556B85"/>
		<stop  offset="0.7104" style="stop-color:#475C73"/>
		<stop  offset="0.8701" style="stop-color:#36485C"/>
		<stop  offset="1" style="stop-color:#253648"/>
	</linearGradient>
	<polygon class="st14" points="170.1,158.6 127.5,122.3 87,169.9 129.6,206.2 	"/>
</g>
<g>
	<defs>
		<path id="SVGID_37_" d="M123.9,274.3c0,0-1.4,1.5-4.9,1.9c-6.7,0.8-8.9,3.5-9,3.5h23l-0.6-5.4H123.9z"/>
	</defs>
	<clipPath id="SVGID_38_">
		<use xlink:href="#SVGID_37_"  style="overflow:visible;"/>
	</clipPath>
	
		<linearGradient id="SVGID_39_" gradientUnits="userSpaceOnUse" x1="4.3748" y1="372.2856" x2="5.3748" y2="372.2856" gradientTransform="matrix(-2.8527 -15.1972 15.1972 -2.8527 -5521.3779 1417.7628)">
		<stop  offset="0" style="stop-color:#35495E"/>
		<stop  offset="0.6387" style="stop-color:#35495E"/>
		<stop  offset="0.7739" style="stop-color:#34485D"/>
		<stop  offset="0.8225" style="stop-color:#32465A"/>
		<stop  offset="0.8572" style="stop-color:#2F4255"/>
		<stop  offset="0.8853" style="stop-color:#2A3C4E"/>
		<stop  offset="0.909" style="stop-color:#233445"/>
		<stop  offset="0.93" style="stop-color:#192A3A"/>
		<stop  offset="1" style="stop-color:#192A3A"/>
	</linearGradient>
	<polygon class="st15" points="134,279.6 132.3,270.2 109,274.5 110.8,283.9 	"/>
</g>
<g>
	<defs>
		<path id="SVGID_40_" d="M124.7,127.6c-0.3,0-0.6,0-0.9,0.1c-4.7,1.1-6.8,6.4-4.2,11c3,5.3,10.6,23.3,10.6,23.3s-1,3.8-3.2,11.8
			c-2.8,10.4-5.6,22.3-5.6,22.3l7.3,1.1c0,0,13.2-33.9,11.1-42.7C137.6,145.6,131.5,127.6,124.7,127.6L124.7,127.6z"/>
	</defs>
	<clipPath id="SVGID_41_">
		<use xlink:href="#SVGID_40_"  style="overflow:visible;"/>
	</clipPath>
	
		<linearGradient id="SVGID_42_" gradientUnits="userSpaceOnUse" x1="-2.3194" y1="384.5105" x2="-1.3194" y2="384.5105" gradientTransform="matrix(82.7331 20.6358 -20.6358 82.7331 8186.9023 -31618.7168)">
		<stop  offset="0" style="stop-color:#68819F"/>
		<stop  offset="0.9948" style="stop-color:#263749"/>
		<stop  offset="1" style="stop-color:#263749"/>
	</linearGradient>
	<polygon class="st16" points="100.7,193.2 140.5,203.1 158.4,131.7 118.5,121.7 	"/>
</g>
<g>
	<defs>
		<path id="SVGID_43_" d="M123.9,127.7c-4.7,1.1-6.8,6.4-4.2,11c3,5.3,10.6,23.3,10.6,23.3l5.7-4.5c0,0-16.4-15.6-16.2-23.7
			c0.1-4,5.6-6.1,5.6-6.1c-0.3-0.1-0.5-0.1-0.8-0.1C124.3,127.6,124.1,127.6,123.9,127.7"/>
	</defs>
	<clipPath id="SVGID_44_">
		<use xlink:href="#SVGID_43_"  style="overflow:visible;"/>
	</clipPath>
	
		<linearGradient id="SVGID_45_" gradientUnits="userSpaceOnUse" x1="-5.6299" y1="383.2372" x2="-4.6299" y2="383.2372" gradientTransform="matrix(34.5869 -1.0195 1.0195 34.5869 -91.9527 -13115.252)">
		<stop  offset="0" style="stop-color:#68819F"/>
		<stop  offset="1" style="stop-color:#243547"/>
	</linearGradient>
	<polygon class="st17" points="117.1,162.6 136.9,162 135.9,127.1 116.1,127.6 	"/>
</g>
<g>
	<defs>
		<path id="SVGID_46_" d="M130.2,162c0,0-1,3.8-3.2,11.8c-2.8,10.4-5.6,22.3-5.6,22.3l2.5,0.4c0,0,1.9-12.7,3.9-20.4
			c1.9-7.8,8.1-18.6,8.1-18.6L130.2,162z"/>
	</defs>
	<clipPath id="SVGID_47_">
		<use xlink:href="#SVGID_46_"  style="overflow:visible;"/>
	</clipPath>
	
		<linearGradient id="SVGID_48_" gradientUnits="userSpaceOnUse" x1="-4.4371" y1="382.4711" x2="-3.4371" y2="382.4711" gradientTransform="matrix(40.1522 -9.5393 9.5393 40.1522 -3367.6636 -15216.1348)">
		<stop  offset="0" style="stop-color:#68819F"/>
		<stop  offset="1" style="stop-color:#243547"/>
	</linearGradient>
	<polygon class="st18" points="122.2,199.8 144.7,194.5 135.1,154.3 112.7,159.7 	"/>
</g>
<g>
	<defs>
		<path id="SVGID_49_" d="M120.2,201.5c-0.3,1.4,0.2,1.3,0.2,1.3l2.7,8.4c0,0,1.5,0.6,1.4-0.5c0-0.6,0.2-0.5,0.6-0.4
			c0.4,0.1,0.7,0.2,0.7-0.7c-0.1-1.6,1,0.1,0.7-2.2c-0.2-2.3,1.6-1.3,0.8-2.7c-0.9-1.3-0.3-5-0.3-5l-6.1-1.4
			C120.8,198.4,120.5,200.1,120.2,201.5"/>
	</defs>
	<clipPath id="SVGID_50_">
		<use xlink:href="#SVGID_49_"  style="overflow:visible;"/>
	</clipPath>
	
		<linearGradient id="SVGID_51_" gradientUnits="userSpaceOnUse" x1="20.9471" y1="399.3306" x2="21.9471" y2="399.3306" gradientTransform="matrix(-6.874 3.4298 -3.4298 -6.874 1642.0626 2876.0229)">
		<stop  offset="0" style="stop-color:#84715B"/>
		<stop  offset="4.097456e-02" style="stop-color:#988269"/>
		<stop  offset="9.889632e-02" style="stop-color:#B1987B"/>
		<stop  offset="0.1645" style="stop-color:#C7AA89"/>
		<stop  offset="0.2387" style="stop-color:#D9B995"/>
		<stop  offset="0.3254" style="stop-color:#E7C49D"/>
		<stop  offset="0.4325" style="stop-color:#F0CBA3"/>
		<stop  offset="0.5828" style="stop-color:#F7D1A7"/>
		<stop  offset="1" style="stop-color:#FAD3A9"/>
	</linearGradient>
	<polygon class="st19" points="126.5,195.1 114.5,201.1 121.5,215.1 133.5,209.2 	"/>
</g>
<polygon class="st4" points="121.4,196.2 120.8,198.4 127,199.8 127.7,197.1 "/>
<polygon class="st20" points="116,195.2 127,199.8 130.6,207.1 132.4,274.3 127.7,274.3 "/>
<g>
	<defs>
		<path id="SVGID_52_" d="M84.6,106c-0.3,0-0.6,0.2-0.8,0.5l-6.9,10.9c-1.7,2.7-0.9,6.3,1.8,8c2.7,1.7,6.3,0.9,8-1.8
			c0.8-1.3,1.1-2.8,0.8-4.3l-0.1-0.4l-0.1,0c-0.1-0.1-0.2-0.2-0.3-0.2c-0.5-0.3-1.1-0.2-1.4,0.3c-0.1,0.1-0.1,0.2-0.1,0.3l-0.1,0
			l0.1,0.4c0.2,1,0,2-0.5,2.8c-1.1,1.8-3.5,2.3-5.3,1.2c-1.8-1.1-2.3-3.5-1.2-5.3l6.9-10.9c0.2-0.3,0.2-0.6,0.1-0.9L114,61.8
			l-0.9-0.6L84.6,106z"/>
	</defs>
	<clipPath id="SVGID_53_">
		<use xlink:href="#SVGID_52_"  style="overflow:visible;"/>
	</clipPath>
	
		<linearGradient id="SVGID_54_" gradientUnits="userSpaceOnUse" x1="0.3598" y1="385.1864" x2="1.3598" y2="385.1864" gradientTransform="matrix(-116.6067 183.1549 -183.1549 -116.6067 70735.4062 44864.8477)">
		<stop  offset="0" style="stop-color:#35495E"/>
		<stop  offset="0.1369" style="stop-color:#35495E"/>
		<stop  offset="0.3806" style="stop-color:#364A5F"/>
		<stop  offset="0.5146" style="stop-color:#3B4E61"/>
		<stop  offset="0.6219" style="stop-color:#425566"/>
		<stop  offset="0.715" style="stop-color:#4D606E"/>
		<stop  offset="0.7991" style="stop-color:#5B6F79"/>
		<stop  offset="0.8765" style="stop-color:#6D8488"/>
		<stop  offset="0.9474" style="stop-color:#849F9A"/>
		<stop  offset="1" style="stop-color:#9ABBAE"/>
	</linearGradient>
	<polygon class="st21" points="86.3,43.5 45.2,108.1 102.8,144.8 143.9,80.2 	"/>
</g>
<g>
	<defs>
		<polygon id="SVGID_55_" points="136.6,24.7 137.2,25.1 141.1,19 140.4,18.6 		"/>
	</defs>
	<clipPath id="SVGID_56_">
		<use xlink:href="#SVGID_55_"  style="overflow:visible;"/>
	</clipPath>
	
		<linearGradient id="SVGID_57_" gradientUnits="userSpaceOnUse" x1="0.3598" y1="385.1711" x2="1.3598" y2="385.1711" gradientTransform="matrix(-116.6064 183.1544 -183.1544 -116.6064 70731.1719 44862.1484)">
		<stop  offset="0" style="stop-color:#35495E"/>
		<stop  offset="0.1369" style="stop-color:#35495E"/>
		<stop  offset="0.3806" style="stop-color:#364A5F"/>
		<stop  offset="0.5146" style="stop-color:#3B4E61"/>
		<stop  offset="0.6219" style="stop-color:#425566"/>
		<stop  offset="0.715" style="stop-color:#4D606E"/>
		<stop  offset="0.7991" style="stop-color:#5B6F79"/>
		<stop  offset="0.8765" style="stop-color:#6D8488"/>
		<stop  offset="0.9474" style="stop-color:#849F9A"/>
		<stop  offset="1" style="stop-color:#9ABBAE"/>
	</linearGradient>
	<polygon class="st22" points="137.9,16.6 133.7,23.2 139.8,27.1 144,20.5 	"/>
</g>
<g>
	<defs>
		<path id="SVGID_58_" d="M57.8,140.2c-5.1,6.6-4.8,10-4.8,10s-14.7-13.5-18.5-18.3c-3.2-4.1-8.9-4.2-11.8-0.3
			c-4.3,5.9,18.5,28.7,27.4,30.3c8.9,1.6,27.5-34.5,27.5-34.5l-5.3-5.2C72.3,122.3,64.4,131.7,57.8,140.2"/>
	</defs>
	<clipPath id="SVGID_59_">
		<use xlink:href="#SVGID_58_"  style="overflow:visible;"/>
	</clipPath>
	
		<linearGradient id="SVGID_60_" gradientUnits="userSpaceOnUse" x1="-2.167725e-02" y1="382.8258" x2="0.9783" y2="382.8258" gradientTransform="matrix(-19.4252 130.3796 130.3796 19.4252 -49849.2891 -7396.5591)">
		<stop  offset="0" style="stop-color:#68819F"/>
		<stop  offset="0.9948" style="stop-color:#263749"/>
		<stop  offset="1" style="stop-color:#263749"/>
	</linearGradient>
	<polygon class="st23" points="83.6,123.2 76.3,172.2 12.5,162.7 19.8,113.6 	"/>
</g>
<g>
	<defs>
		<path id="SVGID_61_" d="M22.8,131.6c-0.3,0.4-0.5,0.8-0.6,1.4c0,0,4.1-4.3,7.8-2.8c7.6,2.9,21.3,27,21.3,27l1.8-7
			c0,0-14.7-13.5-18.5-18.3c-1.7-2.1-4-3.2-6.2-3.2C26.2,128.8,24.1,129.7,22.8,131.6"/>
	</defs>
	<clipPath id="SVGID_62_">
		<use xlink:href="#SVGID_61_"  style="overflow:visible;"/>
	</clipPath>
	
		<linearGradient id="SVGID_63_" gradientUnits="userSpaceOnUse" x1="1.4331" y1="378.9333" x2="2.4331" y2="378.9333" gradientTransform="matrix(-14.5475 32.4183 32.4183 14.5475 -12215.6699 -5438.8071)">
		<stop  offset="0" style="stop-color:#68819F"/>
		<stop  offset="1" style="stop-color:#243547"/>
	</linearGradient>
	<polygon class="st24" points="63.7,133.5 47.9,168.7 11.6,152.4 27.4,117.2 	"/>
</g>
<g>
	<defs>
		<path id="SVGID_64_" d="M57.8,140.2c-5.1,6.6-6.6,9.4-6.6,9.4v7.6v0c0-0.1,3.9-11.5,8.9-17.7c5-6.2,14-15.4,14-15.4l-1.8-1.8
			C72.3,122.3,64.4,131.7,57.8,140.2"/>
	</defs>
	<clipPath id="SVGID_65_">
		<use xlink:href="#SVGID_64_"  style="overflow:visible;"/>
	</clipPath>
	
		<linearGradient id="SVGID_66_" gradientUnits="userSpaceOnUse" x1="-1.2182" y1="380.9252" x2="-0.2182" y2="380.9252" gradientTransform="matrix(9.8638 53.9257 53.9257 -9.8638 -20473.3535 3927.6304)">
		<stop  offset="0" style="stop-color:#68819F"/>
		<stop  offset="1" style="stop-color:#243547"/>
	</linearGradient>
	<polygon class="st25" points="73.4,118.2 80.3,156 52,161.2 45.1,123.4 	"/>
</g>
<g>
	<defs>
		<path id="SVGID_67_" d="M75.7,116.5c-1.2,1-1.9,4.1-1.9,4.1l5.3,4.5c0,0,1.9-0.6,3.5-1.5c1.1-0.6-1-0.8-0.1-1.5
			c1.9-1.3-1.5-0.9,0-1.9c1.5-1-1-1.1,0.1-1.8c1.1-0.7-0.5-1.6-0.5-1.6l-4.7,0.4l-0.1-2.2L75.7,116.5z"/>
	</defs>
	<clipPath id="SVGID_68_">
		<use xlink:href="#SVGID_67_"  style="overflow:visible;"/>
	</clipPath>
	
		<linearGradient id="SVGID_69_" gradientUnits="userSpaceOnUse" x1="7.4167" y1="404.9479" x2="8.4167" y2="404.9479" gradientTransform="matrix(-1.6365 -8.8854 -8.8854 1.6365 3690.2427 -471.9315)">
		<stop  offset="0" style="stop-color:#84715B"/>
		<stop  offset="4.097456e-02" style="stop-color:#988269"/>
		<stop  offset="9.889632e-02" style="stop-color:#B1987B"/>
		<stop  offset="0.1645" style="stop-color:#C7AA89"/>
		<stop  offset="0.2387" style="stop-color:#D9B995"/>
		<stop  offset="0.3254" style="stop-color:#E7C49D"/>
		<stop  offset="0.4325" style="stop-color:#F0CBA3"/>
		<stop  offset="0.5828" style="stop-color:#F7D1A7"/>
		<stop  offset="1" style="stop-color:#FAD3A9"/>
	</linearGradient>
	<polygon class="st26" points="74.2,127 72.1,115.5 84,113.3 86.2,124.8 	"/>
</g>
<polygon class="st4" points="72.3,122.3 73.7,120.5 79.3,125.1 77.6,127.5 "/>
<path class="st1" d="M22.7,127.8c0,0,1.1-5.6-0.4-8.3c-2.6-5-6.8-8.7-4-13.7c3.6-6.6,11.6-6.7,15-4.3c2.2,1.5,1.9,3.3,3.1,4.9
	c2.1,2.8,3.6,4.1,3.3,4.7c-0.3,0.6-2.4,1.1-2.4,1.1l2.2,7.1l-4.2,0.8l2,6.8L22.7,127.8z"/>
<g>
	<defs>
		<polygon id="SVGID_70_" points="28.3,121.3 29.2,128.7 37.3,126.9 35.3,120.1 		"/>
	</defs>
	<clipPath id="SVGID_71_">
		<use xlink:href="#SVGID_70_"  style="overflow:visible;"/>
	</clipPath>
	
		<linearGradient id="SVGID_72_" gradientUnits="userSpaceOnUse" x1="8.0229" y1="368.7826" x2="9.0229" y2="368.7826" gradientTransform="matrix(-6.752 9.1019 9.1019 6.752 -3264.4062 -2445.7251)">
		<stop  offset="0" style="stop-color:#46392B"/>
		<stop  offset="0.2544" style="stop-color:#7F6C57"/>
		<stop  offset="0.5155" style="stop-color:#B1977A"/>
		<stop  offset="0.736" style="stop-color:#D7B793"/>
		<stop  offset="0.9041" style="stop-color:#EFCAA2"/>
		<stop  offset="1" style="stop-color:#FAD3A9"/>
	</linearGradient>
	<polygon class="st27" points="41.4,123.2 34.1,133 24.2,125.6 31.5,115.8 	"/>
</g>
<polygon class="st3" points="35.6,126.3 37.8,126.4 39.4,130.3 36.7,127.5 "/>
<path class="st4" d="M22.3,125.2v-0.6c0,0,11.7,0.3,14.4,2.2c2.8,1.9,5.8,10.2,5.8,10.2L22.3,125.2z"/>
<g>
	<defs>
		<polygon id="SVGID_73_" points="37.4,191.3 20.4,274.3 20.4,274.3 28.9,274.3 38.9,191.3 38.9,191.3 		"/>
	</defs>
	<clipPath id="SVGID_74_">
		<use xlink:href="#SVGID_73_"  style="overflow:visible;"/>
	</clipPath>
	
		<linearGradient id="SVGID_75_" gradientUnits="userSpaceOnUse" x1="0.3697" y1="386.008" x2="1.3697" y2="386.008" gradientTransform="matrix(-6.3135 -115.3861 -115.3861 6.3135 44575.9062 -2088.4692)">
		<stop  offset="0" style="stop-color:#68819F"/>
		<stop  offset="2.682090e-03" style="stop-color:#67809F"/>
		<stop  offset="0.1595" style="stop-color:#516680"/>
		<stop  offset="0.3191" style="stop-color:#3F5268"/>
		<stop  offset="0.4816" style="stop-color:#324457"/>
		<stop  offset="0.6472" style="stop-color:#28394B"/>
		<stop  offset="0.8175" style="stop-color:#223445"/>
		<stop  offset="1" style="stop-color:#213243"/>
	</linearGradient>
	<polygon class="st28" points="20.4,275.4 15.8,191.5 38.8,190.2 43.4,274.1 	"/>
</g>
<g>
	<defs>
		<polygon id="SVGID_76_" points="22.6,193.1 20.4,274.3 20.4,274.3 25.1,274.3 37.4,191.3 		"/>
	</defs>
	<clipPath id="SVGID_77_">
		<use xlink:href="#SVGID_76_"  style="overflow:visible;"/>
	</clipPath>
	
		<linearGradient id="SVGID_78_" gradientUnits="userSpaceOnUse" x1="-2.459051e-02" y1="385.3628" x2="0.9754" y2="385.3628" gradientTransform="matrix(34.6167 -184.4119 -184.4119 -34.6167 71070.2734 13701.1328)">
		<stop  offset="0" style="stop-color:#3D4F64"/>
		<stop  offset="0.6335" style="stop-color:#3D4F64"/>
		<stop  offset="0.7839" style="stop-color:#3C4D62"/>
		<stop  offset="0.838" style="stop-color:#38485C"/>
		<stop  offset="0.8766" style="stop-color:#304053"/>
		<stop  offset="0.9076" style="stop-color:#253546"/>
		<stop  offset="0.93" style="stop-color:#192A3A"/>
		<stop  offset="1" style="stop-color:#192A3A"/>
	</linearGradient>
	<polygon class="st29" points="5.3,271.5 20.9,188.2 52.5,194.1 36.8,277.4 	"/>
</g>
<g>
	<defs>
		<polygon id="SVGID_79_" points="22.6,193.1 20.4,274.3 20.4,274.3 25.1,274.3 37.4,191.3 		"/>
	</defs>
	<clipPath id="SVGID_80_">
		<use xlink:href="#SVGID_79_"  style="overflow:visible;"/>
	</clipPath>
	
		<linearGradient id="SVGID_81_" gradientUnits="userSpaceOnUse" x1="0.7389" y1="386.1994" x2="1.7389" y2="386.1994" gradientTransform="matrix(-21.0037 -96.509 -96.509 21.0037 37329.8711 -7744.3677)">
		<stop  offset="0" style="stop-color:#68819F"/>
		<stop  offset="1" style="stop-color:#213243"/>
	</linearGradient>
	<polygon class="st30" points="21.1,277.9 3.1,195 36.7,187.7 54.7,270.6 	"/>
</g>
<g>
	<defs>
		<path id="SVGID_82_" d="M17.5,146.4c-0.2,6.6,2.3,16.5,2.8,29.5c0.4,9.5-1.2,23.7-1.2,23.7l20.8-5.1c0,0,3.8-33.2,4.4-44.9
			c0.6-11.7-4.9-19.3-8.1-21.5c-3.2-2.2-14-2.9-14-2.9S17.8,135,17.5,146.4"/>
	</defs>
	<clipPath id="SVGID_83_">
		<use xlink:href="#SVGID_82_"  style="overflow:visible;"/>
	</clipPath>
	
		<linearGradient id="SVGID_84_" gradientUnits="userSpaceOnUse" x1="-4.214719e-02" y1="386.1319" x2="0.9579" y2="386.1319" gradientTransform="matrix(20.1969 -107.5939 -107.5939 -20.1969 41560.7656 8045.4482)">
		<stop  offset="0" style="stop-color:#68819F"/>
		<stop  offset="1" style="stop-color:#2E4054"/>
	</linearGradient>
	<polygon class="st31" points="3.9,197 18.3,120.2 58.5,127.8 44.1,204.6 	"/>
</g>
<g>
	<defs>
		<path id="SVGID_85_" d="M24.2,125.4c0.1,0,9.7,1.6,13.1,6.4c3.4,4.8,6.9,12.7,7,12.8c0,0,0,0,0,0l-0.3-2
			c-1.3-7.7-5.3-12.8-7.7-14.5C33.9,126.5,27.5,125.7,24.2,125.4z"/>
	</defs>
	<clipPath id="SVGID_86_">
		<use xlink:href="#SVGID_85_"  style="overflow:visible;"/>
	</clipPath>
	
		<linearGradient id="SVGID_87_" gradientUnits="userSpaceOnUse" x1="-0.2562" y1="395.347" x2="0.7438" y2="395.347" gradientTransform="matrix(3.3226 -17.7002 -17.7002 -3.3226 7031.0337 1453.4475)">
		<stop  offset="0" style="stop-color:#68819F"/>
		<stop  offset="1" style="stop-color:#35495E"/>
	</linearGradient>
	<polygon class="st32" points="20.7,143.9 24.9,121.7 47.8,126 43.6,148.2 	"/>
</g>
<g>
	<defs>
		<polygon id="SVGID_88_" points="31.6,113.7 28.3,121.3 28.3,121.3 35.3,120.1 39.5,119.3 37.3,112.2 		"/>
	</defs>
	<clipPath id="SVGID_89_">
		<use xlink:href="#SVGID_88_"  style="overflow:visible;"/>
	</clipPath>
	
		<linearGradient id="SVGID_90_" gradientUnits="userSpaceOnUse" x1="-10.234" y1="385.5143" x2="-9.234" y2="385.5143" gradientTransform="matrix(19.2412 0.9136 0.9136 -19.2412 -122.7211 7543.8022)">
		<stop  offset="0" style="stop-color:#FAD3A9"/>
		<stop  offset="0.1247" style="stop-color:#DCBB97"/>
		<stop  offset="0.4431" style="stop-color:#9C866C"/>
		<stop  offset="0.7052" style="stop-color:#705F4C"/>
		<stop  offset="0.8977" style="stop-color:#534435"/>
		<stop  offset="1" style="stop-color:#46392B"/>
	</linearGradient>
	<polygon class="st33" points="28.3,111.6 40,112.2 39.5,121.9 27.9,121.3 	"/>
</g>
<g>
	<defs>
		<path id="SVGID_91_" d="M18.1,101.6c-2.7,2.1-3.2,5.3-2.8,7.9c0.4,2.5,6.5,9.2,6.5,9.2s-1.6-8.2-0.4-9.4c1.2-1.2,3.4,2.4,3.4,2.4
			l1.6-1.1c0,0-4.7-3.1-3.8-5.7c0.8-2.6,10.7-3.4,10.7-3.4s-0.6-4-2.5-4.8c-0.2-0.1-0.4-0.1-0.7-0.1C27.4,96.6,20.6,99.7,18.1,101.6
			"/>
	</defs>
	<clipPath id="SVGID_92_">
		<use xlink:href="#SVGID_91_"  style="overflow:visible;"/>
	</clipPath>
	
		<linearGradient id="SVGID_93_" gradientUnits="userSpaceOnUse" x1="-5.0706" y1="382.4567" x2="-4.0706" y2="382.4567" gradientTransform="matrix(32.0697 17.9988 17.9988 -32.0697 -6725.9731 12447.9062)">
		<stop  offset="0" style="stop-color:#68819F"/>
		<stop  offset="1" style="stop-color:#35495E"/>
	</linearGradient>
	<polygon class="st34" points="19.3,88.7 42.7,101.9 28.9,126.5 5.5,113.4 	"/>
</g>
<g>
	<defs>
		<path id="SVGID_94_" d="M29.4,106.3c-0.1,0.5,6.4,1.4,6.4,1.4l-0.3-3.3C35.4,104.4,29.4,105.8,29.4,106.3"/>
	</defs>
	<clipPath id="SVGID_95_">
		<use xlink:href="#SVGID_94_"  style="overflow:visible;"/>
	</clipPath>
	
		<linearGradient id="SVGID_96_" gradientUnits="userSpaceOnUse" x1="-2.67" y1="397.0196" x2="-1.67" y2="397.0196" gradientTransform="matrix(5.5457 -14.2944 -14.2944 -5.5457 5722.3115 2270.0496)">
		<stop  offset="0" style="stop-color:#FAD3A9"/>
		<stop  offset="0.1247" style="stop-color:#DCBB97"/>
		<stop  offset="0.4431" style="stop-color:#9C866C"/>
		<stop  offset="0.7052" style="stop-color:#705F4C"/>
		<stop  offset="0.8977" style="stop-color:#534435"/>
		<stop  offset="1" style="stop-color:#46392B"/>
	</linearGradient>
	<polygon class="st35" points="28.2,107.3 30.1,102.2 36.8,104.8 34.9,109.9 	"/>
</g>
<g>
	<defs>
		<path id="SVGID_97_" d="M18.3,102.3c-2.2,1.1-2.9,3.2-3,4.8c-0.1,0.8,0,1.6,0.1,2.4c0.4,2.5,6.5,9.2,6.5,9.2s-1.6-8.2-0.4-9.4
			c1.2-1.2,3.4,2.4,3.4,2.4l2.1-0.9c0,0-1.1-1.7-1-2.8c0.1-0.8,1.5-1.4,1.7-2.6c0.1-0.8-1.8-1.4-1.5-2.1c0.2-0.7,1.2-0.7,2.1-1.1
			c0,0-2.6-0.9-5.5-0.9C21.3,101.3,19.6,101.6,18.3,102.3"/>
	</defs>
	<clipPath id="SVGID_98_">
		<use xlink:href="#SVGID_97_"  style="overflow:visible;"/>
	</clipPath>
	
		<linearGradient id="SVGID_99_" gradientUnits="userSpaceOnUse" x1="-1.0116" y1="391.6978" x2="-1.157751e-02" y2="391.6978" gradientTransform="matrix(7.8 -25.3863 -25.3863 -7.8 9970.4287 3149.1199)">
		<stop  offset="0" style="stop-color:#68819F"/>
		<stop  offset="1" style="stop-color:#35495E"/>
	</linearGradient>
	<polygon class="st36" points="10.3,117.2 16.3,97.7 33.1,102.8 27.2,122.3 	"/>
</g>
<g>
	<defs>
		<path id="SVGID_100_" d="M19,135.3c0,0-1.5,8.1-1.5,11.8c0,3.7,1.3,12.8,1.3,12.8c0.6,4.7,1.3,10,1.5,15.9
			c0.4,9.5-1.2,23.7-1.2,23.7l11.8-2.9l-1-1.5c0.2-1.5-4.9-11.5-4.7-12.9c-0.7-0.2-4.7-19.1-2.9-22.3c1.1-1.9,4.9-22.3,3.8-29.1
			c-0.2-1.3-0.7-1.9-1.3-1.9C22.6,128.9,19,135.3,19,135.3"/>
	</defs>
	<clipPath id="SVGID_101_">
		<use xlink:href="#SVGID_100_"  style="overflow:visible;"/>
	</clipPath>
	
		<linearGradient id="SVGID_102_" gradientUnits="userSpaceOnUse" x1="-1.2337" y1="385.7961" x2="-0.2337" y2="385.7961" gradientTransform="matrix(79.2041 -67.4285 -67.4285 -79.2041 26046.9355 30713.1699)">
		<stop  offset="0" style="stop-color:#68819F"/>
		<stop  offset="0.1984" style="stop-color:#657E9C"/>
		<stop  offset="0.376" style="stop-color:#5F7793"/>
		<stop  offset="0.5456" style="stop-color:#556B85"/>
		<stop  offset="0.7104" style="stop-color:#475C73"/>
		<stop  offset="0.8701" style="stop-color:#36485C"/>
		<stop  offset="1" style="stop-color:#253648"/>
	</linearGradient>
	<polygon class="st37" points="-17.3,158.6 25.3,122.3 65.8,169.9 23.2,206.2 	"/>
</g>
<g>
	<defs>
		<path id="SVGID_103_" d="M20.4,274.3l-0.6,5.4h0h23c0,0-2.2-2.7-9-3.5c-3.5-0.4-4.9-1.9-4.9-1.9H20.4z"/>
	</defs>
	<clipPath id="SVGID_104_">
		<use xlink:href="#SVGID_103_"  style="overflow:visible;"/>
	</clipPath>
	
		<linearGradient id="SVGID_105_" gradientUnits="userSpaceOnUse" x1="-0.2984" y1="397.1811" x2="0.7016" y2="397.1811" gradientTransform="matrix(2.8527 -15.1972 -15.1972 -2.8527 6065.8506 1417.7628)">
		<stop  offset="0" style="stop-color:#35495E"/>
		<stop  offset="0.6387" style="stop-color:#35495E"/>
		<stop  offset="0.7739" style="stop-color:#34485D"/>
		<stop  offset="0.8225" style="stop-color:#32465A"/>
		<stop  offset="0.8572" style="stop-color:#2F4255"/>
		<stop  offset="0.8853" style="stop-color:#2A3C4E"/>
		<stop  offset="0.909" style="stop-color:#233445"/>
		<stop  offset="0.93" style="stop-color:#192A3A"/>
		<stop  offset="1" style="stop-color:#192A3A"/>
	</linearGradient>
	<polygon class="st38" points="18.8,279.6 20.5,270.2 43.8,274.5 42,283.9 	"/>
</g>
<g>
	<defs>
		<path id="SVGID_106_" d="M13,154.6c-2.1,8.8,11.1,42.7,11.1,42.7l7.3-1.1c0,0-2.8-11.9-5.6-22.3c-2.2-8.1-3.2-11.8-3.2-11.8
			s7.6-18,10.6-23.3c2.5-4.5,0.5-9.9-4.2-11c-0.3-0.1-0.6-0.1-0.9-0.1C21.3,127.6,15.2,145.6,13,154.6"/>
	</defs>
	<clipPath id="SVGID_107_">
		<use xlink:href="#SVGID_106_"  style="overflow:visible;"/>
	</clipPath>
	
		<linearGradient id="SVGID_108_" gradientUnits="userSpaceOnUse" x1="2.1374" y1="383.3989" x2="3.1374" y2="383.3989" gradientTransform="matrix(-82.7331 20.6358 20.6358 82.7331 -7642.4297 -31618.7168)">
		<stop  offset="0" style="stop-color:#68819F"/>
		<stop  offset="0.9948" style="stop-color:#263749"/>
		<stop  offset="1" style="stop-color:#263749"/>
	</linearGradient>
	<polygon class="st39" points="52.1,193.2 12.3,203.1 -5.6,131.7 34.3,121.7 	"/>
</g>
<g>
	<defs>
		<path id="SVGID_109_" d="M27.5,127.7c0,0,5.5,2.2,5.6,6.1c0.2,8.2-16.2,23.7-16.2,23.7l5.7,4.5c0,0,7.6-18,10.6-23.3
			c2.5-4.5,0.5-9.9-4.2-11c-0.2-0.1-0.4-0.1-0.7-0.1C28,127.6,27.8,127.6,27.5,127.7"/>
	</defs>
	<clipPath id="SVGID_110_">
		<use xlink:href="#SVGID_109_"  style="overflow:visible;"/>
	</clipPath>
	
		<linearGradient id="SVGID_111_" gradientUnits="userSpaceOnUse" x1="5.6845" y1="383.5707" x2="6.6845" y2="383.5707" gradientTransform="matrix(-34.5869 -1.0195 -1.0195 34.5869 636.4254 -13115.252)">
		<stop  offset="0" style="stop-color:#68819F"/>
		<stop  offset="1" style="stop-color:#243547"/>
	</linearGradient>
	<polygon class="st40" points="35.7,162.6 15.9,162 16.9,127.1 36.7,127.6 	"/>
</g>
<g>
	<defs>
		<path id="SVGID_112_" d="M24.9,176.2c1.9,7.8,3.9,20.4,3.9,20.4l2.5-0.4c0,0-2.8-11.9-5.6-22.3c-2.2-8.1-3.2-11.8-3.2-11.8
			l-5.7-4.5C16.9,157.6,23,168.4,24.9,176.2"/>
	</defs>
	<clipPath id="SVGID_113_">
		<use xlink:href="#SVGID_112_"  style="overflow:visible;"/>
	</clipPath>
	
		<linearGradient id="SVGID_114_" gradientUnits="userSpaceOnUse" x1="4.7963" y1="384.6647" x2="5.7963" y2="384.6647" gradientTransform="matrix(-40.1522 -9.5393 -9.5393 40.1522 3912.1362 -15216.1348)">
		<stop  offset="0" style="stop-color:#68819F"/>
		<stop  offset="1" style="stop-color:#243547"/>
	</linearGradient>
	<polygon class="st41" points="30.6,199.8 8.1,194.5 17.7,154.3 40.1,159.7 	"/>
</g>
<g>
	<defs>
		<path id="SVGID_115_" d="M25.8,199.8c0,0,0.6,3.6-0.3,5c-0.9,1.3,1,0.3,0.8,2.7c-0.2,2.3,0.8,0.6,0.7,2.2
			c-0.1,0.9,0.3,0.8,0.7,0.7c0.3-0.1,0.6-0.2,0.6,0.4c-0.1,1.2,1.4,0.5,1.4,0.5l2.7-8.4c0,0,0.5,0.1,0.2-1.3
			c-0.3-1.4-0.6-3.1-0.6-3.1L25.8,199.8z"/>
	</defs>
	<clipPath id="SVGID_116_">
		<use xlink:href="#SVGID_115_"  style="overflow:visible;"/>
	</clipPath>
	
		<linearGradient id="SVGID_117_" gradientUnits="userSpaceOnUse" x1="-24.6743" y1="376.5677" x2="-23.6743" y2="376.5677" gradientTransform="matrix(6.874 3.4298 3.4298 -6.874 -1097.59 2876.0229)">
		<stop  offset="0" style="stop-color:#84715B"/>
		<stop  offset="4.097456e-02" style="stop-color:#988269"/>
		<stop  offset="9.889632e-02" style="stop-color:#B1987B"/>
		<stop  offset="0.1645" style="stop-color:#C7AA89"/>
		<stop  offset="0.2387" style="stop-color:#D9B995"/>
		<stop  offset="0.3254" style="stop-color:#E7C49D"/>
		<stop  offset="0.4325" style="stop-color:#F0CBA3"/>
		<stop  offset="0.5828" style="stop-color:#F7D1A7"/>
		<stop  offset="1" style="stop-color:#FAD3A9"/>
	</linearGradient>
	<polygon class="st42" points="26.3,195.1 38.3,201.1 31.3,215.1 19.3,209.2 	"/>
</g>
<polygon class="st4" points="31.4,196.2 32,198.4 25.8,199.8 25.1,197.1 "/>
<polygon class="st20" points="36.8,195.2 25.8,199.8 22.2,207.1 20.4,274.3 25.1,274.3 "/>
</svg>
