<?xml version="1.0" encoding="utf-8"?>
<!-- Generator: Adobe Illustrator 22.0.1, SVG Export Plug-In . SVG Version: 6.00 Build 0)  -->
<svg version="1.1" id="Layer_1" xmlns="http://www.w3.org/2000/svg" xmlns:xlink="http://www.w3.org/1999/xlink" x="0px" y="0px"
	 viewBox="0 0 50 50" style="enable-background:new 0 0 50 50;" xml:space="preserve">
<style type="text/css">
	.st0{clip-path:url(#SVGID_2_);fill:#6D4099;}
</style>
<g>
	<defs>
		<rect id="SVGID_1_" x="13" y="10.8" width="24" height="28.2"/>
	</defs>
	<clipPath id="SVGID_2_">
		<use xlink:href="#SVGID_1_"  style="overflow:visible;"/>
	</clipPath>
	<path class="st0" d="M25,23.5c3.1,0,5.6-2.5,5.6-5.6c0-3.1-2.5-5.6-5.6-5.6c-3.1,0-5.6,2.5-5.6,5.6C19.4,21,21.9,23.5,25,23.5
		 M25,24.9c-3.9,0-7-3.2-7-7c0-3.9,3.2-7,7-7c3.9,0,7,3.2,7,7C32,21.7,28.9,24.9,25,24.9 M37,38.3c0,0.4-0.3,0.7-0.7,0.7
		s-0.7-0.3-0.7-0.7c0-5.8-4.7-10.6-10.6-10.6c-5.8,0-10.6,4.7-10.6,10.6c0,0.4-0.3,0.7-0.7,0.7c-0.4,0-0.7-0.3-0.7-0.7
		c0-6.6,5.4-12,12-12S37,31.7,37,38.3"/>
</g>
</svg>
