<?xml version="1.0" encoding="utf-8"?>
<!-- Generator: Adobe Illustrator 22.0.1, SVG Export Plug-In . SVG Version: 6.00 Build 0)  -->
<svg version="1.1" id="Layer_1" xmlns="http://www.w3.org/2000/svg" xmlns:xlink="http://www.w3.org/1999/xlink" x="0px" y="0px"
	 viewBox="0 0 50 50" style="enable-background:new 0 0 50 50;" xml:space="preserve">
<style type="text/css">
	.st0{clip-path:url(#SVGID_2_);fill:#6D4099;}
</style>
<g>
	<defs>
		<rect id="SVGID_1_" x="7" y="8.1" width="35.9" height="33.9"/>
	</defs>
	<clipPath id="SVGID_2_">
		<use xlink:href="#SVGID_1_"  style="overflow:visible;"/>
	</clipPath>
	<path class="st0" d="M36.3,10.1H10.2c-0.4,0-0.6,0.3-0.6,0.6s0.3,0.6,0.6,0.6h26.1c0.4,0,0.6-0.3,0.6-0.6S36.7,10.1,36.3,10.1
		 M35.1,22.7c-0.4,0-0.6,0.3-0.6,0.6v3c0,0.4,0.3,0.6,0.6,0.6s0.6-0.3,0.6-0.6v-3C35.8,23,35.5,22.7,35.1,22.7 M41.7,27.9
		c0,0.1-0.1,0.2-0.2,0.2h-8.2c-0.1,0-0.2-0.1-0.2-0.2v-6.1c0-0.1,0.1-0.2,0.2-0.2h8.2c0.1,0,0.2,0.1,0.2,0.2V27.9z M41.5,20.3h-1.3
		v-4.9c0-1.8-1.4-3.2-3.2-3.2H9.8c-0.8,0-1.4-0.6-1.4-1.4C8.3,10,9,9.3,9.8,9.3h26.5c0.4,0,0.6-0.3,0.6-0.6c0-0.4-0.3-0.6-0.6-0.6
		H9.8C8.2,8,7,9.3,7,10.8v23.5c0,1.8,1.4,3.2,3.2,3.2h0.9c0.4,0,0.6-0.3,0.6-0.6s-0.3-0.6-0.6-0.6h-0.9c-1.1,0-1.9-0.9-1.9-1.9V13.1
		c0.4,0.3,0.9,0.4,1.4,0.4h27.2c1.1,0,1.9,0.9,1.9,1.9v4.9h-5.6c-0.8,0-1.5,0.7-1.5,1.5v6.1c0,0.8,0.7,1.5,1.5,1.5h5.6v4.9
		c0,1.1-0.9,1.9-1.9,1.9H21.8c-0.4,0-0.6,0.3-0.6,0.6s0.3,0.6,0.6,0.6h15.1c1.8,0,3.2-1.4,3.2-3.2v-4.9h1.3c0.8,0,1.5-0.7,1.5-1.5
		v-6.1C43,21,42.3,20.3,41.5,20.3 M17.9,37.7c0,0.5-0.3,0.9-0.8,1.1v-2.2C17.5,36.8,17.9,37.2,17.9,37.7 M15.7,35.1
		c-0.5-0.2-0.8-0.6-0.8-1.1c0-0.5,0.3-0.9,0.8-1.1V35.1z M18,33.4c0.2,0.3,0.6,0.4,0.9,0.2c0.3-0.2,0.4-0.6,0.2-0.9
		c-0.4-0.6-1.2-1.1-2-1.2v-1.2c0-0.4-0.3-0.6-0.6-0.6c-0.4,0-0.6,0.3-0.6,0.6v1.2c-1.2,0.2-2.1,1.2-2.1,2.4c0,1.2,0.9,2.2,2.1,2.4
		v2.4c-0.4-0.1-0.8-0.3-1-0.6c-0.2-0.3-0.6-0.4-0.9-0.2c-0.3,0.2-0.4,0.6-0.2,0.9c0.4,0.6,1.2,1.1,2,1.2v1.2c0,0.4,0.3,0.6,0.6,0.6
		c0.4,0,0.6-0.3,0.6-0.6v-1.2c1.2-0.2,2.1-1.2,2.1-2.4c0-1.2-0.9-2.2-2.1-2.4v-2.4C17.4,32.9,17.8,33.2,18,33.4"/>
</g>
</svg>
